<?xml version="1.0" encoding="UTF-8" standalone="no"?>
<svg width="658px" height="694px" viewBox="0 0 658 694" version="1.1" xmlns="http://www.w3.org/2000/svg" xmlns:xlink="http://www.w3.org/1999/xlink">
    <!-- Generator: Sketch 40.3 (33839) - http://www.bohemiancoding.com/sketch -->
    <title>Group</title>
    <desc>Created with Sketch.</desc>
    <defs></defs>
    <g id="Page-1" stroke="none" stroke-width="1" fill="none" fill-rule="evenodd">
        <g id="Group" transform="translate(329.400000, 346.900000) scale(1, -1) translate(-329.400000, -346.900000) translate(0.400000, -0.100000)" fill="#1A699E">
            <path d="M94.4,692.3 C55.5,685.9 23.7,660.6 8.6,623.9 C4.4,613.8 0.9,598.3 0.2,587.4 C-0.8,570.2 3.5,547.4 10.7,532 C15.5,521.7 26.4,506.5 35,498 C43.9,489.2 45.6,489.2 56.2,498 C60.6,501.6 77.4,515.3 93.6,528.5 C183,601.2 214.6,627.1 214.6,627.7 C214.6,628.1 212.7,631.8 210.5,635.9 C194.4,665.5 162.6,687.4 128.6,692.4 C117.1,694 104.8,694 94.4,692.3 L94.4,692.3 Z M124.3,678.8 C150.6,675.3 172.9,662.8 189.6,642.4 C193,638.2 195.6,634.5 195.4,634 C195.1,633.2 172.6,614.7 67.1,528.9 C59.4,522.7 51,515.7 48.3,513.6 L43.6,509.6 L40.5,512.5 C35.9,516.8 27,529.9 23.6,537.1 C20.4,543.9 16,558.2 15.1,564.5 C12.5,583.7 14.9,604.7 21.5,619.2 C22.7,621.7 23.6,624 23.6,624.4 C23.6,624.7 25.4,628 27.7,631.7 C43.8,658.2 69.8,675.3 100.1,679.2 C106.3,680 116.7,679.9 124.3,678.8 L124.3,678.8 Z" id="Shape"></path>
            <path d="M528.1,692.4 C500.4,688.2 474.2,672.7 455.9,649.8 C451.4,644.1 442.7,629.6 442.6,627.7 C442.6,627.1 474.2,601.2 563.6,528.5 C579.8,515.3 596.6,501.6 601,498 C611.6,489.2 613.3,489.2 622.2,498 C630.8,506.5 641.7,521.7 646.5,532 C653.7,547.4 658,570.2 657,587.4 C656.3,598.3 652.8,613.8 648.6,623.9 C628.7,672.2 579.4,700.2 528.1,692.4 L528.1,692.4 Z M567.1,677.4 C587.3,672.8 607.3,660.5 620,645.1 C624.9,639.1 633.6,625.8 633.6,624.4 C633.6,624 634.5,621.7 635.7,619.2 C642.3,604.7 644.7,583.7 642.1,564.5 C641.2,558.2 636.8,543.9 633.6,537.1 C630.2,529.9 621.3,516.8 616.7,512.5 L613.6,509.6 L608.9,513.6 C606.2,515.7 597.8,522.7 590.1,528.9 C484.6,614.7 462.1,633.2 461.8,634 C461.2,635.5 473.3,649.6 480.3,655.5 C500.3,672.4 523.1,680.4 549.1,679.4 C555.2,679.2 563.3,678.3 567.1,677.4 L567.1,677.4 Z" id="Shape"></path>
            <path d="M307.1,617.2 C268.6,614.1 231.5,603.9 198.3,587.3 C110.4,543.2 50.3,456.6 40.1,359.3 C30.2,264.6 65.8,173.2 137.4,110 C141.3,106.5 144.6,103.3 144.6,102.9 C144.6,102.3 134.9,90.4 120.1,72.9 C107,57.4 104,50.2 104.9,36.6 C106.9,6.6 140.7,-10 165.6,6.7 C169.4,9.3 176.3,16.6 187.9,30.4 C197.1,41.4 206.8,52.8 209.4,55.8 L214.2,61.3 L226.6,56.7 C237.8,52.6 253,48.1 265.6,45.1 C296.7,37.8 342.1,36.7 377.1,42.5 C393.7,45.3 419.2,52.4 433,58.1 C438.6,60.4 440.2,60.7 441.1,59.7 C441.8,59 451.6,47.4 462.9,33.9 C474.2,20.4 484.9,8.4 486.8,7.2 C495,1.8 499.6,0.4 509.7,0.4 C518.7,0.4 519.6,0.6 526.8,4.1 C538.6,10 545.5,18.9 548.2,32 C550.1,41.1 549,48.6 544.6,57.4 C542.9,60.9 535,71.3 525.6,82.4 C516.8,92.9 509.6,101.7 509.6,102 C509.6,102.3 512.4,104.8 515.9,107.6 C525.1,115.1 547.1,138 555.5,148.9 C588.9,191.8 608.9,240.1 615.8,293.9 C617.8,309.7 617.5,351.3 615.2,366.4 C605.6,431.9 577.8,487.9 532.7,533 C483.8,581.7 421.7,610.6 352.6,616.9 C342,617.8 316.7,618 307.1,617.2 L307.1,617.2 Z M363.6,598.9 C398.2,593.8 430.7,583.3 458.1,568.2 C470.7,561.3 487.6,550 498.6,541.3 C509.5,532.6 532.3,509.8 541,498.9 C571.3,460.8 590.8,416.2 598.2,367.4 C600.7,351.3 601.2,315.2 599.2,298 C595.2,264.1 587.6,238 572.6,207.4 C521.4,102.9 408.6,42.5 292.8,57.5 C206.9,68.6 130.4,120.8 88.8,196.7 C66.1,238.1 55.5,280.2 55.5,328.9 C55.5,400.5 82,466 131.5,517.2 C176.9,564.1 233.3,592 297.6,599.5 C310.9,601 351.7,600.7 363.6,598.9 L363.6,598.9 Z M172,84 C177,80.8 183.9,76.7 187.3,74.8 C190.8,72.9 193.5,71.1 193.3,70.7 C193.2,70.3 184.7,59.9 174.3,47.6 C153.3,22.5 151.8,21.3 142.1,22.1 C133.8,22.8 127.5,28.5 126,36.6 C124.7,43.7 127.1,47.9 145.1,69.5 C154.5,80.7 162.3,89.9 162.5,89.9 C162.7,89.9 167,87.3 172,84 L172,84 Z M508.5,69.5 C517.4,58.8 525.4,48.6 526.3,46.9 C528.5,42.4 527.6,34 524.5,29.5 C521.2,24.6 515.6,21.7 509.6,21.7 C503.5,21.8 500.1,23.5 495,29.1 C489.5,35.2 461.1,68.9 460.9,69.7 C460.8,70.1 465.4,73.1 471.3,76.4 C477.1,79.7 483.9,83.8 486.5,85.6 C489,87.3 491.3,88.8 491.7,88.8 C492,88.9 499.5,80.1 508.5,69.5 L508.5,69.5 Z" id="Shape"></path>
            <path d="M414,402.9 L337,325.8 L332.3,327 C328.3,328.1 326.9,328 322.1,326.5 L316.5,324.8 L259.6,358.3 C228.4,376.8 202.3,391.9 201.8,391.9 C200.5,391.9 193.4,379.9 193.9,378.5 C194.3,377.5 219.3,362.6 288.2,322.2 C308.9,310.1 309.4,309.7 310,306.1 C311.7,295.4 324.1,288.1 334.3,292 C340.3,294.2 346.5,302.8 346.6,308.9 C346.6,310.9 363.3,328.1 425.1,389.9 L503.6,468.4 L497.9,474.1 C494.7,477.3 491.9,479.9 491.6,479.9 C491.3,479.9 456.4,445.2 414,402.9 L414,402.9 Z" id="Shape"></path>
        </g>
    </g>
</svg>