<?xml version="1.0" encoding="UTF-8" standalone="no"?>
<svg width="104px" height="87px" viewBox="0 0 104 87" version="1.1" xmlns="http://www.w3.org/2000/svg" xmlns:xlink="http://www.w3.org/1999/xlink">
    <!-- Generator: Sketch 40.3 (33839) - http://www.bohemiancoding.com/sketch -->
    <title>Group</title>
    <desc>Created with Sketch.</desc>
    <defs></defs>
    <g id="Page-1" stroke="none" stroke-width="1" fill="none" fill-rule="evenodd">
        <g id="Group" transform="translate(2.000000, 0.000000)">
            <circle id="Oval" fill="#1A699E" cx="23.9" cy="36.6" r="3.7"></circle>
            <circle id="Oval" fill="#1A699E" cx="36.3" cy="36.6" r="3.7"></circle>
            <circle id="Oval" fill="#1A699E" cx="49.1" cy="36.6" r="3.7"></circle>
            <circle id="Oval" fill="#1A699E" cx="61.4" cy="36.6" r="3.7"></circle>
            <circle id="Oval" fill="#1A699E" cx="73.6" cy="36.6" r="3.7"></circle>
            <circle id="Oval" fill="#1A699E" cx="86" cy="36.6" r="3.7"></circle>
            <circle id="Oval" fill="#1A699E" cx="11.6" cy="47.8" r="3.7"></circle>
            <circle id="Oval" fill="#1A699E" cx="23.9" cy="47.8" r="3.7"></circle>
            <circle id="Oval" fill="#1A699E" cx="36.7" cy="47.8" r="3.7"></circle>
            <circle id="Oval" fill="#1A699E" cx="49.1" cy="47.8" r="3.7"></circle>
            <circle id="Oval" fill="#1A699E" cx="61.3" cy="47.8" r="3.7"></circle>
            <circle id="Oval" fill="#1A699E" cx="73.6" cy="47.8" r="3.7"></circle>
            <circle id="Oval" fill="#1A699E" cx="11.6" cy="59.2" r="3.7"></circle>
            <circle id="Oval" fill="#1A699E" cx="23.9" cy="59.2" r="3.7"></circle>
            <circle id="Oval" fill="#1A699E" cx="36.7" cy="59.2" r="3.7"></circle>
            <circle id="Oval" fill="#1A699E" cx="49.1" cy="59.2" r="3.7"></circle>
            <circle id="Oval" fill="#1A699E" cx="11.6" cy="70.9" r="3.7"></circle>
            <circle id="Oval" fill="#1A699E" cx="23.9" cy="70.9" r="3.7"></circle>
            <circle id="Oval" fill="#1A699E" cx="36.7" cy="70.9" r="3.7"></circle>
            <circle id="Oval" fill="#1A699E" cx="49.1" cy="70.9" r="3.7"></circle>
            <circle id="Oval" fill="#1A699E" cx="61.3" cy="59.2" r="3.7"></circle>
            <circle id="Oval" fill="#1A699E" cx="73.6" cy="59.2" r="3.7"></circle>
            <path d="M0.5,22.4 L99.1,22.4" id="Shape" stroke="#1A699E" stroke-width="4"></path>
            <path d="M93.3,84.6 L6.3,84.6 C3.1,84.6 0.5,82 0.5,78.8 L0.5,11.8 C0.5,8.6 3.1,6 6.3,6 L93.3,6 C96.5,6 99.1,8.6 99.1,11.8 L99.1,78.8 C99.1,82 96.5,84.6 93.3,84.6 L93.3,84.6 Z" id="Shape" stroke="#1A699E" stroke-width="4"></path>
            <path d="M23.1,0.5 L23.1,11.6" id="Shape" stroke="#1A699E" stroke-width="4"></path>
            <path d="M76.7,0.5 L76.7,11.6" id="Shape" stroke="#1A699E" stroke-width="4"></path>
        </g>
    </g>
</svg>