<?xml version="1.0" encoding="UTF-8" standalone="no"?>
<svg width="72px" height="91px" viewBox="0 0 72 91" version="1.1" xmlns="http://www.w3.org/2000/svg" xmlns:xlink="http://www.w3.org/1999/xlink">
    <!-- Generator: Sketch 40.3 (33839) - http://www.bohemiancoding.com/sketch -->
    <title>Group</title>
    <desc>Created with Sketch.</desc>
    <defs></defs>
    <g id="Page-1" stroke="none" stroke-width="1" fill="none" fill-rule="evenodd">
        <g id="Group" fill="#1A699E">
            <path d="M38.758,35.368 L38.758,29.097 C38.758,27.577 37.521,26.34 36,26.34 C34.479,26.34 33.242,27.577 33.242,29.097 L33.242,35.368 L38.758,35.368 L38.758,35.368 Z M34.543,29.098 C34.543,28.295 35.196,27.642 36,27.642 C36.804,27.642 37.457,28.295 37.457,29.098 L37.457,34.068 L34.543,34.068 L34.543,29.098 L34.543,29.098 Z" id="Shape"></path>
            <path d="M39.594,56.682 L39.594,48.18 C39.594,46.199 37.982,44.585 36,44.585 C34.018,44.585 32.406,46.198 32.406,48.18 L32.406,56.682 L39.594,56.682 L39.594,56.682 Z M33.707,48.18 C33.707,46.915 34.735,45.886 36,45.886 C37.265,45.886 38.293,46.915 38.293,48.18 L38.293,55.381 L33.707,55.381 L33.707,48.18 L33.707,48.18 Z" id="Shape"></path>
            <path d="M65.551,89.35 L65.551,60.6 L45.02,40.068 L45.02,21.051 L36.651,12.682 L36.651,5.36 L40.051,5.36 L40.051,4.059 L36.651,4.059 L36.651,0 L35.35,0 L35.35,4.059 L31.948,4.059 L31.948,5.36 L35.35,5.36 L35.35,12.68 L26.889,21.143 L26.889,40.16 L6.449,60.6 L6.449,89.35 L0.291,89.35 L0.291,90.651 L6.449,90.651 L11.562,90.651 L24.705,90.651 L29.428,90.651 L42.573,90.651 L47.294,90.651 L60.439,90.651 L65.552,90.651 L71.71,90.651 L71.71,89.35 L65.551,89.35 L65.551,89.35 Z M43.719,39.779 L28.189,39.779 L28.189,21.971 L43.718,21.971 L43.718,39.779 L43.719,39.779 Z M29.201,20.67 L36,13.869 L42.799,20.67 L29.201,20.67 L29.201,20.67 Z M27.809,41.08 L44.192,41.08 L63.33,60.219 L8.67,60.219 L27.809,41.08 L27.809,41.08 Z M11.563,89.35 L11.563,71.139 C11.563,67.515 14.511,64.568 18.135,64.568 C21.758,64.568 24.705,67.515 24.705,71.139 L24.705,89.35 L11.563,89.35 L11.563,89.35 Z M29.428,89.35 L29.428,71.139 C29.428,67.515 32.376,64.568 36,64.568 C39.624,64.568 42.572,67.515 42.572,71.139 L42.572,89.35 L29.428,89.35 L29.428,89.35 Z M47.293,89.35 L47.293,71.139 C47.293,67.515 50.241,64.568 53.865,64.568 C57.489,64.568 60.437,67.515 60.437,71.139 L60.437,89.35 L47.293,89.35 L47.293,89.35 Z M61.738,89.35 L61.738,71.139 C61.738,66.798 58.206,63.267 53.865,63.267 C49.524,63.267 45.992,66.798 45.992,71.139 L45.992,89.35 L43.873,89.35 L43.873,71.139 C43.873,66.798 40.341,63.267 36,63.267 C31.659,63.267 28.127,66.798 28.127,71.139 L28.127,89.35 L26.006,89.35 L26.006,71.139 C26.006,66.798 22.475,63.267 18.135,63.267 C13.794,63.267 10.262,66.798 10.262,71.139 L10.262,89.35 L7.75,89.35 L7.75,61.52 L64.25,61.52 L64.25,89.35 L61.738,89.35 L61.738,89.35 Z" id="Shape"></path>
        </g>
    </g>
</svg>