<?xml version="1.0" encoding="UTF-8" standalone="no"?>
<svg width="81px" height="60px" viewBox="0 0 81 60" version="1.1" xmlns="http://www.w3.org/2000/svg" xmlns:xlink="http://www.w3.org/1999/xlink">
    <!-- Generator: Sketch 40.3 (33839) - http://www.bohemiancoding.com/sketch -->
    <title>noun_48127</title>
    <desc>Created with Sketch.</desc>
    <defs></defs>
    <g id="Page-1" stroke="none" stroke-width="1" fill="none" fill-rule="evenodd">
        <g id="noun_48127" fill="#1A699E">
            <path d="M80.872,59.351 L54,52.014 L27.583,59.214 L0.75,51.877 L0.75,0.916 L27.583,8.253 L54,1.053 L54.132,1.089 L80.872,8.39 L80.872,59.351 L80.872,59.351 Z M1.75,51.113 L27.583,58.176 L54,50.977 L79.872,58.04 L79.872,9.153 L54,2.089 L27.583,9.289 L27.451,9.253 L1.75,2.226 L1.75,51.113 L1.75,51.113 Z" id="Shape"></path>
            <path d="M72.151,48.758 L71.705,47.879 C71.331,47.141 68.05,40.612 68.05,38.564 C68.05,36.302 69.89,34.462 72.152,34.462 C74.413,34.462 76.253,36.302 76.253,38.564 C76.253,40.613 72.973,47.141 72.599,47.879 L72.151,48.758 L72.151,48.758 Z M72.151,35.462 C70.441,35.462 69.049,36.854 69.049,38.564 C69.049,39.901 70.998,44.17 72.151,46.529 C73.303,44.17 75.252,39.901 75.252,38.564 C75.252,36.854 73.861,35.462 72.151,35.462 L72.151,35.462 Z" id="Shape"></path>
            <circle id="Oval" cx="72.151" cy="38.678" r="1.486"></circle>
            <g id="Group" transform="translate(1.000000, 6.000000)">
                <path d="M0.563,16.085 C0.394,16.05 0.223,16.011 0.05,15.968 L0.294,14.998 C0.452,15.038 0.608,15.074 0.763,15.105 L0.563,16.085 L0.563,16.085 Z" id="Shape"></path>
                <path d="M25.91,46.021 C25.59,46.02 25.24,46.002 24.865,45.969 L24.954,44.973 C25.299,45.004 25.62,45.02 25.913,45.021 L25.91,46.021 L25.91,46.021 Z M26.997,45.944 L26.821,44.96 C27.092,44.911 27.383,44.826 27.686,44.708 L28.052,45.638 C27.688,45.781 27.333,45.884 26.997,45.944 L26.997,45.944 Z M23.841,45.848 C23.516,45.801 23.178,45.744 22.83,45.678 L23.016,44.696 C23.35,44.758 23.673,44.813 23.984,44.858 L23.841,45.848 L23.841,45.848 Z M21.829,45.47 C21.505,45.397 21.175,45.317 20.84,45.231 L21.089,44.262 C21.415,44.346 21.736,44.424 22.05,44.495 L21.829,45.47 L21.829,45.47 Z M29.017,45.174 L28.526,44.303 C28.793,44.153 29.062,43.983 29.332,43.793 L29.905,44.613 C29.607,44.82 29.311,45.008 29.017,45.174 L29.017,45.174 Z M19.856,44.958 C19.535,44.864 19.21,44.765 18.884,44.658 L19.193,43.707 C19.51,43.81 19.825,43.907 20.138,43.999 L19.856,44.958 L19.856,44.958 Z M17.919,44.331 C17.601,44.217 17.283,44.099 16.966,43.975 L17.329,43.043 C17.638,43.163 17.947,43.279 18.256,43.39 L17.919,44.331 L17.919,44.331 Z M30.733,43.984 L30.1,43.209 C30.345,43.01 30.589,42.796 30.832,42.571 L31.512,43.303 C31.254,43.544 30.994,43.771 30.733,43.984 L30.733,43.984 Z M16.023,43.589 C15.71,43.455 15.399,43.316 15.091,43.172 L15.514,42.266 C15.812,42.406 16.114,42.539 16.417,42.669 L16.023,43.589 L16.023,43.589 Z M14.175,42.723 C13.869,42.566 13.568,42.405 13.273,42.237 L13.767,41.368 C14.049,41.528 14.338,41.683 14.631,41.833 L14.175,42.723 L14.175,42.723 Z M32.248,42.584 L31.53,41.889 C31.754,41.658 31.976,41.417 32.194,41.169 L32.945,41.829 C32.716,42.089 32.484,42.341 32.248,42.584 L32.248,42.584 Z M38.449,42.515 C38.165,42.515 37.871,42.49 37.574,42.44 L37.74,41.454 C37.979,41.494 38.215,41.516 38.448,41.516 L38.632,41.511 L38.675,42.511 L38.449,42.515 L38.449,42.515 Z M39.787,42.314 L39.49,41.359 C39.762,41.274 40.027,41.151 40.275,40.993 L40.813,41.837 C40.489,42.043 40.144,42.203 39.787,42.314 L39.787,42.314 Z M36.526,42.168 C36.207,42.058 35.877,41.917 35.544,41.751 L35.991,40.856 C36.278,41 36.565,41.123 36.853,41.222 L36.526,42.168 L36.526,42.168 Z M12.393,41.711 C12.099,41.526 11.812,41.336 11.535,41.14 L12.112,40.324 C12.374,40.509 12.645,40.689 12.924,40.864 L12.393,41.711 L12.393,41.711 Z M34.629,41.228 C34.375,41.066 34.124,40.89 33.875,40.702 C33.786,40.817 33.695,40.931 33.604,41.045 L32.826,40.418 C33.031,40.163 33.231,39.903 33.427,39.64 L34.133,40.161 L34.386,39.834 C34.643,40.032 34.905,40.218 35.169,40.387 L34.629,41.228 L34.629,41.228 Z M41.673,41.133 L40.96,40.432 C41.16,40.229 41.352,39.992 41.532,39.726 L42.36,40.287 C42.146,40.602 41.916,40.887 41.673,41.133 L41.673,41.133 Z M10.71,40.52 C10.435,40.299 10.172,40.072 9.923,39.838 L10.608,39.109 C10.838,39.325 11.081,39.535 11.336,39.74 L10.71,40.52 L10.71,40.52 Z M32.976,39.959 C32.721,39.73 32.472,39.488 32.229,39.238 L32.949,38.543 C33.175,38.777 33.407,39.001 33.645,39.215 L32.976,39.959 L32.976,39.959 Z M34.821,39.396 L33.992,38.837 C34.176,38.564 34.353,38.288 34.523,38.011 L35.376,38.534 C35.198,38.823 35.014,39.11 34.821,39.396 L34.821,39.396 Z M42.892,39.373 L42.007,38.908 C42.16,38.617 42.306,38.324 42.445,38.03 L43.349,38.458 C43.204,38.766 43.051,39.07 42.892,39.373 L42.892,39.373 Z M9.192,39.089 C8.952,38.819 8.732,38.542 8.534,38.259 L9.353,37.687 C9.529,37.939 9.725,38.185 9.938,38.425 L9.192,39.089 L9.192,39.089 Z M31.535,38.471 C31.311,38.207 31.096,37.936 30.891,37.661 L31.694,37.063 C31.886,37.322 32.088,37.576 32.298,37.824 L31.535,38.471 L31.535,38.471 Z M35.892,37.649 L35.017,37.165 C35.177,36.876 35.328,36.587 35.469,36.298 L36.367,36.737 C36.219,37.04 36.061,37.345 35.892,37.649 L35.892,37.649 Z M43.767,37.527 L42.847,37.134 C42.976,36.833 43.096,36.53 43.208,36.226 L44.146,36.574 C44.027,36.894 43.901,37.211 43.767,37.527 L43.767,37.527 Z M7.981,37.344 C7.815,37.016 7.678,36.679 7.574,36.342 L8.53,36.047 C8.617,36.33 8.733,36.614 8.874,36.893 L7.981,37.344 L7.981,37.344 Z M30.302,36.81 C30.112,36.515 29.934,36.216 29.77,35.916 L30.648,35.437 C30.8,35.715 30.965,35.993 31.142,36.266 L30.302,36.81 L30.302,36.81 Z M36.794,35.798 L35.871,35.411 C35.999,35.105 36.114,34.804 36.216,34.506 L37.162,34.828 C37.054,35.147 36.931,35.471 36.794,35.798 L36.794,35.798 Z M44.48,35.606 L43.527,35.303 C43.626,34.991 43.717,34.679 43.799,34.366 L44.766,34.618 C44.681,34.949 44.585,35.277 44.48,35.606 L44.48,35.606 Z M7.356,35.27 C7.338,35.089 7.329,34.908 7.328,34.724 L7.343,34.198 L8.342,34.239 L8.33,34.625 C8.329,34.873 8.336,35.021 8.351,35.169 L7.356,35.27 L7.356,35.27 Z M29.306,34.982 C29.16,34.654 29.032,34.326 28.925,34.003 L29.874,33.689 C29.971,33.981 30.086,34.278 30.219,34.577 L29.306,34.982 L29.306,34.982 Z M37.459,33.825 L36.488,33.585 C36.566,33.269 36.626,32.958 36.665,32.658 L37.657,32.785 C37.614,33.122 37.547,33.47 37.459,33.825 L37.459,33.825 Z M45.001,33.619 L44.022,33.416 C44.088,33.097 44.144,32.777 44.19,32.459 L45.18,32.604 C45.131,32.941 45.071,33.28 45.001,33.619 L45.001,33.619 Z M8.416,33.276 L7.422,33.167 C7.462,32.804 7.514,32.462 7.577,32.138 L8.558,32.331 C8.5,32.628 8.452,32.942 8.416,33.276 L8.416,33.276 Z M28.652,32.973 C28.579,32.598 28.539,32.234 28.533,31.891 L29.533,31.873 C29.538,32.158 29.572,32.464 29.633,32.781 L28.652,32.973 L28.652,32.973 Z M36.714,31.738 C36.705,31.422 36.663,31.128 36.591,30.866 L37.555,30.6 C37.648,30.939 37.702,31.311 37.714,31.706 L36.714,31.738 L36.714,31.738 Z M45.298,31.578 L44.302,31.496 C44.328,31.173 44.344,30.85 44.349,30.529 L45.349,30.544 C45.344,30.887 45.326,31.231 45.298,31.578 L45.298,31.578 Z M8.789,31.421 L7.836,31.118 C7.947,30.767 8.08,30.433 8.23,30.125 L9.129,30.563 C9,30.827 8.885,31.116 8.789,31.421 L8.789,31.421 Z M29.621,31.006 L28.648,30.774 C28.743,30.379 28.896,30.018 29.103,29.699 L29.941,30.246 C29.796,30.467 29.688,30.723 29.621,31.006 L29.621,31.006 Z M36.248,30.111 C36.095,29.889 35.901,29.698 35.671,29.544 L36.231,28.715 C36.564,28.94 36.847,29.219 37.071,29.544 L36.248,30.111 L36.248,30.111 Z M9.593,29.784 L8.785,29.194 C9,28.899 9.245,28.625 9.513,28.379 L10.191,29.114 C9.971,29.317 9.77,29.542 9.593,29.784 L9.593,29.784 Z M30.503,29.658 L29.916,28.848 C30.208,28.636 30.549,28.459 30.928,28.325 L31.264,29.266 C30.975,29.37 30.719,29.501 30.503,29.658 L30.503,29.658 Z M44.328,29.563 C44.31,29.241 44.28,28.921 44.237,28.605 L45.229,28.473 C45.274,28.815 45.306,29.161 45.326,29.508 L44.328,29.563 L44.328,29.563 Z M34.902,29.185 C34.637,29.104 34.34,29.047 34.018,29.017 L34.114,28.022 C34.502,28.059 34.865,28.129 35.194,28.23 L34.902,29.185 L34.902,29.185 Z M32.141,29.055 L31.995,28.066 C32.328,28.017 32.685,27.989 33.059,27.984 L33.073,28.984 C32.743,28.988 32.43,29.012 32.141,29.055 L32.141,29.055 Z M10.911,28.564 L10.375,27.72 C10.662,27.537 10.98,27.367 11.32,27.216 L11.728,28.129 C11.432,28.261 11.157,28.407 10.911,28.564 L10.911,28.564 Z M12.614,27.788 L12.3,26.839 C12.619,26.734 12.951,26.638 13.294,26.55 L13.542,27.519 C13.221,27.6 12.911,27.689 12.614,27.788 L12.614,27.788 Z M44.069,27.659 C44.003,27.347 43.921,27.038 43.827,26.733 L44.782,26.438 C44.886,26.771 44.973,27.108 45.048,27.449 L44.069,27.659 L44.069,27.659 Z M14.497,27.297 L14.29,26.318 C14.613,26.25 14.945,26.185 15.287,26.122 L15.468,27.105 C15.134,27.167 14.811,27.231 14.497,27.297 L14.497,27.297 Z M16.45,26.929 L16.275,25.945 L17.262,25.771 L17.437,26.755 L16.45,26.929 L16.45,26.929 Z M18.428,26.573 L18.242,25.591 C18.562,25.53 18.886,25.466 19.216,25.398 L19.42,26.377 C19.084,26.447 18.753,26.512 18.428,26.573 L18.428,26.573 Z M20.41,26.158 L20.182,25.184 C20.498,25.11 20.818,25.031 21.141,24.947 L21.395,25.914 C21.063,26.001 20.734,26.083 20.41,26.158 L20.41,26.158 Z M43.504,25.829 C43.386,25.535 43.252,25.245 43.106,24.959 L43.997,24.503 C44.157,24.816 44.303,25.133 44.433,25.455 L43.504,25.829 L43.504,25.829 Z M22.375,25.64 L22.09,24.681 C22.4,24.589 22.713,24.491 23.027,24.385 L23.346,25.332 C23.02,25.442 22.696,25.544 22.375,25.64 L22.375,25.64 Z M24.307,24.988 L23.953,24.053 C24.254,23.938 24.558,23.817 24.864,23.687 L25.256,24.607 C24.937,24.743 24.621,24.869 24.307,24.988 L24.307,24.988 Z M42.633,24.128 C42.465,23.861 42.283,23.598 42.088,23.34 L42.885,22.736 C43.098,23.017 43.295,23.303 43.479,23.594 L42.633,24.128 L42.633,24.128 Z M41.477,22.599 C41.267,22.364 41.043,22.132 40.808,21.906 L41.5,21.184 C41.754,21.429 41.995,21.678 42.222,21.932 L41.477,22.599 L41.477,22.599 Z M40.087,21.263 C39.907,21.114 39.72,20.967 39.527,20.822 L39.32,20.67 L39.908,19.86 L40.127,20.022 C40.333,20.176 40.532,20.333 40.725,20.492 L40.087,21.263 L40.087,21.263 Z M38.518,20.119 C38.243,19.941 37.966,19.772 37.687,19.613 L38.183,18.745 C38.477,18.913 38.77,19.091 39.061,19.279 L38.518,20.119 L38.518,20.119 Z M36.829,19.154 C36.537,19.008 36.243,18.87 35.947,18.741 L36.346,17.824 C36.658,17.96 36.968,18.105 37.277,18.259 L36.829,19.154 L36.829,19.154 Z M35.043,18.375 C34.737,18.26 34.43,18.153 34.122,18.054 L34.428,17.102 C34.752,17.206 35.075,17.318 35.396,17.439 L35.043,18.375 L35.043,18.375 Z M33.183,17.776 C32.868,17.69 32.552,17.611 32.234,17.538 L32.458,16.563 C32.789,16.639 33.119,16.721 33.447,16.811 L33.183,17.776 L33.183,17.776 Z M31.273,17.338 C30.951,17.276 30.627,17.221 30.304,17.171 L30.457,16.183 C30.792,16.235 31.126,16.293 31.46,16.356 L31.273,17.338 L31.273,17.338 Z M29.325,17.033 C28.998,16.991 28.671,16.953 28.343,16.92 L28.446,15.925 C28.782,15.96 29.118,15.998 29.454,16.041 L29.325,17.033 L29.325,17.033 Z M27.355,16.828 C27.024,16.801 26.694,16.775 26.363,16.753 L26.431,15.755 C26.766,15.778 27.102,15.804 27.437,15.832 L27.355,16.828 L27.355,16.828 Z M25.369,16.688 L24.372,16.631 L24.426,15.633 L25.429,15.69 L25.369,16.688 L25.369,16.688 Z M23.371,16.579 L22.371,16.523 L22.429,15.525 L23.428,15.581 L23.371,16.579 L23.371,16.579 Z M21.367,16.462 C21.032,16.439 20.697,16.415 20.363,16.388 L20.444,15.391 C20.773,15.418 21.103,15.442 21.435,15.464 L21.367,16.462 L21.367,16.462 Z M2.643,16.322 C2.301,16.316 1.952,16.293 1.596,16.252 L1.71,15.259 C2.033,15.296 2.351,15.317 2.661,15.322 L2.643,16.322 L2.643,16.322 Z M19.358,16.298 C19.022,16.264 18.687,16.227 18.353,16.186 L18.476,15.194 C18.802,15.235 19.129,15.271 19.458,15.303 L19.358,16.298 L19.358,16.298 Z M3.694,16.286 L3.608,15.29 C3.928,15.262 4.24,15.217 4.545,15.157 L4.738,16.138 C4.399,16.205 4.051,16.255 3.694,16.286 L3.694,16.286 Z M17.349,16.047 C17.013,15.995 16.678,15.938 16.346,15.875 L16.533,14.893 C16.854,14.954 17.177,15.009 17.501,15.059 L17.349,16.047 L17.349,16.047 Z M5.761,15.877 L5.461,14.923 C5.766,14.827 6.061,14.716 6.348,14.591 L6.748,15.507 C6.43,15.646 6.1,15.771 5.761,15.877 L5.761,15.877 Z M15.348,15.666 C15.015,15.589 14.684,15.504 14.356,15.412 L14.627,14.449 C14.94,14.537 15.255,14.618 15.573,14.691 L15.348,15.666 L15.348,15.666 Z M13.374,15.109 C13.049,14.999 12.728,14.881 12.408,14.753 L12.78,13.824 C13.082,13.945 13.387,14.057 13.695,14.161 L13.374,15.109 L13.374,15.109 Z M7.69,15.034 L7.195,14.165 C7.472,14.007 7.74,13.836 7.997,13.653 L8.575,14.469 C8.291,14.671 7.996,14.86 7.69,15.034 L7.69,15.034 Z M11.464,14.343 C11.154,14.197 10.848,14.041 10.544,13.874 L11.026,12.998 C11.311,13.155 11.598,13.301 11.889,13.438 L11.464,14.343 L11.464,14.343 Z M9.4,13.821 L8.747,13.064 C8.903,12.929 9.415,12.56 9.562,12.417 C9.484,12.312 10.161,13.101 10.161,13.101 C9.919,13.351 9.666,13.592 9.4,13.821 L9.4,13.821 Z M10.854,12.32 L10.079,11.688 C10.283,11.438 10.475,11.181 10.654,10.919 L11.479,11.483 C11.283,11.769 11.075,12.048 10.854,12.32 L10.854,12.32 Z M8.431,11.412 C8.272,11.119 8.118,10.806 7.972,10.48 L8.884,10.071 C9.02,10.374 9.164,10.665 9.311,10.938 L8.431,11.412 L8.431,11.412 Z M12.032,10.602 L11.165,10.104 C11.327,9.822 11.476,9.537 11.61,9.251 L12.514,9.679 C12.368,9.988 12.207,10.296 12.032,10.602 L12.032,10.602 Z M7.581,9.519 C7.462,9.196 7.354,8.865 7.259,8.531 L8.221,8.257 C8.309,8.567 8.41,8.875 8.52,9.174 L7.581,9.519 L7.581,9.519 Z M12.921,8.717 L11.984,8.366 C12.098,8.061 12.197,7.757 12.279,7.456 L13.243,7.721 C13.154,8.05 13.046,8.382 12.921,8.717 L12.921,8.717 Z M7.014,7.514 C6.946,7.162 6.896,6.813 6.867,6.47 L7.863,6.385 C7.889,6.694 7.935,7.008 7.996,7.324 L7.014,7.514 L7.014,7.514 Z M13.473,6.694 L12.487,6.528 C12.541,6.207 12.575,5.895 12.587,5.594 L13.586,5.635 C13.572,5.976 13.534,6.332 13.473,6.694 L13.473,6.694 Z M7.847,5.456 L6.849,5.395 C6.872,5.006 6.931,4.64 7.023,4.305 L7.987,4.571 C7.914,4.839 7.867,5.136 7.847,5.456 L7.847,5.456 Z M12.554,4.677 C12.514,4.364 12.445,4.078 12.346,3.828 L13.276,3.461 C13.405,3.788 13.497,4.155 13.547,4.552 L12.554,4.677 L12.554,4.677 Z M8.326,3.793 L7.483,3.255 C7.697,2.919 7.968,2.63 8.286,2.394 L8.88,3.199 C8.661,3.361 8.474,3.561 8.326,3.793 L8.326,3.793 Z M11.924,3.148 C11.747,2.964 11.533,2.831 11.289,2.752 L11.599,1.801 C12.001,1.932 12.352,2.152 12.644,2.454 L11.924,3.148 L11.924,3.148 Z M9.627,2.825 L9.319,1.873 C9.526,1.807 9.749,1.752 9.987,1.713 C10.138,1.688 10.283,1.672 10.425,1.664 L10.484,2.662 C10.377,2.668 10.266,2.681 10.151,2.7 C9.964,2.731 9.789,2.772 9.627,2.825 L9.627,2.825 Z" id="Shape"></path>
                <path d="M26.351,24.11 L25.915,23.21 L26.546,22.895 L27.213,23.126 L26.891,24.072 L26.62,23.979 C26.529,24.023 26.44,24.067 26.351,24.11 L26.351,24.11 Z" id="Shape"></path>
                <path d="M69.759,43.978 C69.408,43.944 69.071,43.903 68.745,43.857 L68.886,42.867 C69.197,42.911 69.52,42.95 69.855,42.982 L69.759,43.978 L69.759,43.978 Z M67.733,43.687 C67.381,43.618 67.047,43.541 66.728,43.458 L66.982,42.491 C67.282,42.569 67.596,42.641 67.926,42.707 L67.733,43.687 L67.733,43.687 Z M65.736,43.154 C65.391,43.034 65.068,42.903 64.764,42.763 L65.184,41.855 C65.458,41.983 65.752,42.1 66.064,42.209 L65.736,43.154 L65.736,43.154 Z M63.834,42.265 C63.524,42.075 63.232,41.864 62.964,41.637 L63.609,40.873 C63.839,41.067 64.091,41.249 64.358,41.413 L63.834,42.265 L63.834,42.265 Z M62.199,40.875 C61.965,40.598 61.755,40.298 61.575,39.982 L62.442,39.486 C62.592,39.748 62.767,39.998 62.963,40.228 L62.199,40.875 L62.199,40.875 Z M61.122,39.001 C61.004,38.677 60.907,38.328 60.834,37.966 L61.814,37.769 C61.876,38.082 61.96,38.382 62.061,38.66 L61.122,39.001 L61.122,39.001 Z M60.692,36.916 C60.671,36.653 60.662,36.386 60.662,36.113 L60.664,35.864 L61.664,35.889 L61.662,36.107 C61.662,36.358 61.67,36.6 61.688,36.837 L60.692,36.916 L60.692,36.916 Z M61.723,34.928 L60.727,34.832 C60.759,34.497 60.802,34.156 60.856,33.811 L61.844,33.963 C61.794,34.289 61.753,34.61 61.723,34.928 L61.723,34.928 Z M62.017,33.003 L61.037,32.804 C61.103,32.476 61.177,32.145 61.256,31.812 L62.229,32.042 C62.152,32.363 62.081,32.685 62.017,33.003 L62.017,33.003 Z M62.467,31.085 L61.5,30.829 C61.586,30.506 61.674,30.181 61.766,29.856 L62.729,30.127 C62.639,30.448 62.551,30.767 62.467,31.085 L62.467,31.085 Z M63.004,29.171 L62.045,28.891 L62.329,27.929 L63.288,28.214 L63.004,29.171 L63.004,29.171 Z M47.907,29.143 C47.737,29.143 47.562,29.139 47.383,29.132 L47.42,28.133 C47.759,28.145 48.08,28.146 48.378,28.133 L48.425,29.132 C48.259,29.139 48.086,29.143 47.907,29.143 L47.907,29.143 Z M46.356,29.065 C46.031,29.035 45.693,28.997 45.343,28.952 L45.472,27.96 C45.808,28.004 46.134,28.04 46.448,28.069 L46.356,29.065 L46.356,29.065 Z M49.491,29.008 L49.294,28.028 C49.616,27.963 49.872,27.87 50.055,27.753 L50.596,28.595 C50.308,28.779 49.937,28.918 49.491,29.008 L49.491,29.008 Z M44.341,28.807 C44.014,28.755 43.681,28.698 43.342,28.636 L43.522,27.653 C43.853,27.713 44.178,27.769 44.498,27.82 L44.341,28.807 L44.341,28.807 Z M42.35,28.445 C42.025,28.38 41.695,28.31 41.363,28.238 L41.576,27.26 C41.903,27.331 42.228,27.4 42.547,27.464 L42.35,28.445 L42.35,28.445 Z M40.38,28.017 C40.055,27.942 39.728,27.864 39.401,27.784 L39.638,26.812 C39.962,26.891 40.284,26.968 40.606,27.042 L40.38,28.017 L40.38,28.017 Z M51.375,27.593 L50.461,27.189 C50.582,26.915 50.676,26.628 50.739,26.336 L51.716,26.549 C51.638,26.907 51.523,27.258 51.375,27.593 L51.375,27.593 Z M38.423,27.541 L37.45,27.289 L37.705,26.322 L38.67,26.572 L38.423,27.541 L38.423,27.541 Z M63.573,27.256 L62.614,26.971 C62.71,26.651 62.802,26.332 62.893,26.016 L63.854,26.29 C63.764,26.61 63.669,26.932 63.573,27.256 L63.573,27.256 Z M36.481,27.028 L35.512,26.759 L35.783,25.796 L36.743,26.063 L36.481,27.028 L36.481,27.028 Z M34.547,26.483 L33.583,26.201 L33.867,25.242 L34.824,25.522 L34.547,26.483 L34.547,26.483 Z M32.621,25.914 L31.661,25.621 L31.956,24.665 L32.911,24.957 L32.621,25.914 L32.621,25.914 Z M51.847,25.468 L50.847,25.436 L50.85,25.269 C50.85,25.021 50.833,24.77 50.803,24.516 L51.795,24.396 C51.831,24.691 51.85,24.982 51.85,25.269 L51.847,25.468 L51.847,25.468 Z M30.703,25.321 L29.746,25.017 L30.052,24.065 L31.003,24.367 L30.703,25.321 L30.703,25.321 Z M64.124,25.32 L63.159,25.06 C63.245,24.738 63.327,24.419 63.402,24.104 L64.375,24.336 C64.298,24.66 64.214,24.988 64.124,25.32 L64.124,25.32 Z M28.792,24.708 L27.837,24.393 L28.154,23.445 L29.102,23.758 L28.792,24.708 L28.792,24.708 Z M50.63,23.595 C50.556,23.293 50.464,22.989 50.358,22.68 L51.303,22.354 C51.419,22.69 51.519,23.024 51.601,23.354 L50.63,23.595 L50.63,23.595 Z M64.594,23.341 L63.614,23.147 C63.678,22.821 63.734,22.501 63.779,22.188 L64.769,22.33 C64.722,22.66 64.662,22.998 64.594,23.341 L64.594,23.341 Z M50.01,21.78 C49.885,21.487 49.749,21.192 49.604,20.896 L50.502,20.456 C50.655,20.769 50.799,21.081 50.93,21.39 L50.01,21.78 L50.01,21.78 Z M64.878,21.295 L63.88,21.233 C63.892,21.037 63.899,20.844 63.899,20.655 C63.898,20.533 63.895,20.409 63.89,20.288 L64.888,20.242 C64.895,20.376 64.898,20.513 64.899,20.651 C64.898,20.865 64.892,21.078 64.878,21.295 L64.878,21.295 Z M49.155,20.024 C49,19.738 48.839,19.451 48.672,19.165 L49.537,18.663 C49.708,18.958 49.875,19.253 50.034,19.548 L49.155,20.024 L49.155,20.024 Z M63.775,19.377 C63.712,19.075 63.62,18.791 63.502,18.534 L64.412,18.118 C64.56,18.443 64.676,18.797 64.754,19.172 L63.775,19.377 L63.775,19.377 Z M48.165,18.316 C47.994,18.036 47.819,17.756 47.641,17.476 L48.483,16.938 C48.666,17.223 48.844,17.509 49.019,17.795 L48.165,18.316 L48.165,18.316 Z M63.045,17.8 C62.866,17.583 62.652,17.385 62.409,17.21 L62.993,16.398 C63.306,16.623 63.584,16.881 63.816,17.164 L63.045,17.8 L63.045,17.8 Z M61.629,16.767 C61.366,16.649 61.073,16.545 60.76,16.458 L61.028,15.494 C61.39,15.595 61.73,15.716 62.04,15.855 L61.629,16.767 L61.629,16.767 Z M47.103,16.636 L46.558,15.799 L47.394,15.251 L47.943,16.092 L47.103,16.636 L47.103,16.636 Z M59.761,16.147 C59.407,16.011 59.078,15.85 58.783,15.67 L59.304,14.816 C59.547,14.964 59.822,15.098 60.119,15.212 L59.761,16.147 L59.761,16.147 Z M57.904,14.99 C57.635,14.726 57.402,14.43 57.21,14.11 L58.067,13.594 C58.216,13.842 58.397,14.072 58.605,14.278 L57.904,14.99 L57.904,14.99 Z M46.009,14.96 L45.463,14.117 L46.305,13.577 L46.847,14.413 L46.009,14.96 L46.009,14.96 Z M44.925,13.265 C44.744,12.974 44.569,12.685 44.4,12.399 L45.263,11.892 C45.426,12.171 45.598,12.453 45.775,12.736 L44.925,13.265 L44.925,13.265 Z M56.753,13.099 C56.648,12.775 56.566,12.419 56.513,12.041 L57.503,11.9 C57.549,12.22 57.616,12.52 57.704,12.789 L56.753,13.099 L56.753,13.099 Z M43.896,11.518 C43.729,11.213 43.57,10.911 43.422,10.612 L44.318,10.169 C44.46,10.455 44.611,10.744 44.772,11.037 L43.896,11.518 L43.896,11.518 Z M56.431,10.981 L56.429,10.754 C56.429,10.488 56.438,10.218 56.454,9.945 L57.452,10.005 C57.437,10.257 57.429,10.507 57.429,10.754 L57.431,10.967 L56.431,10.981 L56.431,10.981 Z M42.993,9.673 C42.853,9.34 42.732,9.013 42.632,8.692 L43.585,8.392 C43.678,8.685 43.789,8.984 43.915,9.287 L42.993,9.673 L42.993,9.673 Z M57.536,9.034 L56.542,8.923 C56.58,8.589 56.622,8.254 56.666,7.921 L57.658,8.053 C57.614,8.379 57.572,8.707 57.536,9.034 L57.536,9.034 Z M42.373,7.664 C42.308,7.301 42.274,6.946 42.274,6.61 L43.274,6.583 C43.274,6.887 43.302,7.182 43.357,7.486 L42.373,7.664 L42.373,7.664 Z M57.795,7.062 L56.805,6.929 C56.849,6.597 56.893,6.269 56.928,5.949 L57.922,6.059 C57.885,6.388 57.841,6.723 57.795,7.062 L57.795,7.062 Z M43.382,5.72 L42.413,5.47 C42.509,5.101 42.654,4.748 42.848,4.422 L43.709,4.931 C43.563,5.176 43.453,5.442 43.382,5.72 L43.382,5.72 Z M58.01,5.037 L57.012,4.981 C57.022,4.798 57.028,4.619 57.028,4.444 C57.028,4.304 57.024,4.169 57.017,4.036 L58.015,3.981 C58.024,4.131 58.028,4.286 58.028,4.444 C58.027,4.637 58.021,4.835 58.01,5.037 L58.01,5.037 Z M44.246,4.244 L43.537,3.539 C43.781,3.293 44.065,3.06 44.381,2.845 L44.943,3.672 C44.68,3.851 44.445,4.043 44.246,4.244 L44.246,4.244 Z M45.746,3.203 L45.299,2.308 C45.593,2.161 45.912,2.021 46.257,1.888 L46.616,2.821 C46.303,2.942 46.013,3.069 45.746,3.203 L45.746,3.203 Z M56.885,3.157 C56.804,2.865 56.692,2.623 56.542,2.418 L57.349,1.828 C57.572,2.132 57.735,2.479 57.848,2.89 L56.885,3.157 L56.885,3.157 Z M47.528,2.51 L47.237,1.553 C47.549,1.458 47.88,1.368 48.227,1.282 L48.465,2.254 C48.136,2.334 47.823,2.42 47.528,2.51 L47.528,2.51 Z M49.42,2.043 L49.225,1.063 C49.545,0.999 49.879,0.939 50.226,0.883 L50.386,1.87 C50.051,1.924 49.729,1.982 49.42,2.043 L49.42,2.043 Z M55.954,1.901 C55.734,1.776 55.468,1.677 55.162,1.61 L55.378,0.633 C55.782,0.722 56.143,0.857 56.45,1.032 L55.954,1.901 L55.954,1.901 Z M51.359,1.727 L51.228,0.736 C51.552,0.693 51.887,0.653 52.232,0.616 L52.339,1.61 C52.003,1.646 51.676,1.685 51.359,1.727 L51.359,1.727 Z M53.315,1.519 L53.247,0.521 C53.629,0.496 53.98,0.488 54.301,0.502 L54.258,1.501 C53.974,1.49 53.659,1.495 53.315,1.519 L53.315,1.519 Z" id="Shape"></path>
                <polygon id="Shape" points="71.703 44.074 70.846 44.062 70.906 43.063 71.75 43.076"></polygon>
            </g>
            <rect id="Rectangle-path" x="27.333" y="8.771" width="0.5" height="49.924"></rect>
            <rect id="Rectangle-path" x="53.75" y="1.571" width="0.5" height="49.924"></rect>
        </g>
    </g>
</svg>