<?xml version="1.0" encoding="UTF-8" standalone="no"?>
<svg width="72px" height="60px" viewBox="0 0 72 60" version="1.1" xmlns="http://www.w3.org/2000/svg" xmlns:xlink="http://www.w3.org/1999/xlink">
    <!-- Generator: Sketch 40.3 (33839) - http://www.bohemiancoding.com/sketch -->
    <title>Shape</title>
    <desc>Created with Sketch.</desc>
    <defs></defs>
    <g id="Page-1" stroke="none" stroke-width="1" fill="none" fill-rule="evenodd">
        <path d="M4.262,0.712 C2.067,0.712 0.266,2.536 0.266,4.724 L0.266,55.275 C0.266,57.492 2.067,59.287 4.262,59.287 L65.319,59.287 L67.344,59.287 L67.711,59.287 L67.879,59.287 L68.19,59.287 L68.19,59.26 L68.301,59.26 C68.33,59.26 68.358,59.26 68.385,59.233 C68.414,59.233 68.442,59.233 68.471,59.204 C70.299,58.868 71.735,57.241 71.735,55.276 L71.735,18.976 C71.735,16.788 69.905,14.964 67.712,14.964 L64.392,14.964 L64.392,4.724 C64.392,2.536 62.562,0.712 60.369,0.712 L4.262,0.712 L4.262,0.712 L4.262,0.712 Z M4.262,2.312 L60.367,2.312 C61.717,2.312 62.814,3.377 62.814,4.724 L62.814,15.636 C62.787,15.693 62.787,15.721 62.814,15.777 L62.814,51.797 L62.814,53.088 C62.814,55.276 63.406,56.734 64.22,57.717 L4.262,57.717 C2.911,57.717 1.842,56.623 1.842,55.276 L1.842,4.724 C1.842,3.377 2.911,2.312 4.262,2.312 L4.262,2.312 L4.262,2.312 Z M20.722,7.614 C20.328,7.67 20.018,8.035 20.018,8.427 L20.018,21.808 C20.018,22.23 20.384,22.594 20.806,22.594 L43.85,22.594 C44.245,22.594 44.639,22.23 44.639,21.808 L44.639,8.427 C44.639,8.006 44.244,7.614 43.85,7.614 L20.806,7.614 L20.722,7.614 L20.722,7.614 L20.722,7.614 Z M21.594,9.212 L43.035,9.212 L43.035,21.023 L21.594,21.023 L21.594,9.212 L21.594,9.212 L21.594,9.212 Z M64.391,16.562 L67.711,16.562 C69.061,16.562 70.158,17.628 70.158,18.975 L70.158,55.275 C70.158,56.623 69.06,57.716 67.711,57.716 L67.373,57.716 C67.035,57.689 66.67,57.605 66.248,57.407 C65.348,56.958 64.391,56.005 64.391,53.087 L64.391,16.562 L64.391,16.562 L64.391,16.562 Z M20.862,29.496 C20.44,29.523 20.102,29.944 20.131,30.365 C20.187,30.786 20.61,31.123 21.003,31.094 L43.654,31.094 C44.076,31.094 44.441,30.702 44.441,30.281 C44.441,29.86 44.076,29.496 43.654,29.496 L21.003,29.496 L20.947,29.496 L20.862,29.496 L20.862,29.496 L20.862,29.496 Z M8.145,36.424 C7.751,36.481 7.414,36.901 7.441,37.295 C7.498,37.715 7.92,38.051 8.341,37.996 L27.784,37.996 C28.206,38.023 28.6,37.631 28.6,37.209 C28.6,36.789 28.206,36.424 27.784,36.424 L8.341,36.424 L8.229,36.424 L8.145,36.424 L8.145,36.424 L8.145,36.424 Z M36.704,36.424 C36.282,36.48 35.944,36.9 36,37.295 C36.027,37.715 36.45,38.051 36.872,37.996 L56.314,37.996 C56.736,38.023 57.13,37.631 57.13,37.209 C57.13,36.789 56.735,36.424 56.314,36.424 L36.873,36.424 L36.761,36.424 L36.704,36.424 L36.704,36.424 L36.704,36.424 Z M8.145,43.354 C7.751,43.411 7.414,43.831 7.441,44.223 C7.498,44.645 7.92,44.981 8.341,44.924 L27.784,44.924 C28.206,44.953 28.6,44.561 28.6,44.139 C28.6,43.719 28.206,43.354 27.784,43.354 L8.341,43.354 L8.229,43.354 L8.145,43.354 L8.145,43.354 L8.145,43.354 Z M36.704,43.354 C36.282,43.411 35.944,43.831 36.001,44.223 C36.028,44.645 36.451,44.981 36.873,44.924 L56.315,44.924 C56.737,44.953 57.131,44.561 57.131,44.139 C57.131,43.719 56.736,43.354 56.315,43.354 L36.873,43.354 L36.761,43.354 L36.704,43.354 L36.704,43.354 L36.704,43.354 Z M8.145,50.283 C7.751,50.338 7.414,50.732 7.441,51.152 C7.498,51.572 7.92,51.91 8.341,51.853 L27.784,51.853 C28.206,51.88 28.6,51.488 28.6,51.068 C28.6,50.646 28.206,50.283 27.784,50.283 L8.341,50.283 L8.229,50.283 L8.145,50.283 L8.145,50.283 L8.145,50.283 Z M36.704,50.283 C36.282,50.338 35.944,50.732 36.001,51.152 C36.028,51.572 36.451,51.91 36.873,51.853 L56.315,51.853 C56.737,51.88 57.131,51.488 57.131,51.068 C57.131,50.646 56.736,50.283 56.315,50.283 L36.873,50.283 L36.761,50.283 L36.704,50.283 L36.704,50.283 L36.704,50.283 Z" id="Shape" fill="#1A699E"></path>
    </g>
</svg>