<?xml version="1.0" encoding="UTF-8" standalone="no"?>
<svg width="60px" height="81px" viewBox="0 0 60 81" version="1.1" xmlns="http://www.w3.org/2000/svg" xmlns:xlink="http://www.w3.org/1999/xlink">
    <!-- Generator: Sketch 40.3 (33839) - http://www.bohemiancoding.com/sketch -->
    <title>Group</title>
    <desc>Created with Sketch.</desc>
    <defs></defs>
    <g id="Page-1" stroke="none" stroke-width="1" fill="none" fill-rule="evenodd">
        <g id="Group" fill="#1A699E">
            <circle id="Oval" cx="19.68579" cy="40.24057" r="1.78172"></circle>
            <circle id="Oval" cx="38.46954" cy="40.98965" r="1.78172"></circle>
            <path d="M36.44824,50.50439 C36.03564,50.1997 35.46191,50.25585 35.11719,50.63378 C35.10791,50.64355 34.17627,51.65868 32.63574,53.15868 C31.9331,53.84276 30.75195,54.06542 29.86523,54.11376 C29.98144,51.25976 30.26416,43.3413 29.95507,40.54101 C29.78319,38.98535 29.45263,37.37499 27.50195,36.28369 C26.28222,35.60156 24.89111,35.33203 23.57031,35.07568 C21.50049,34.6748 19.41357,34.70556 17.5332,35.16699 C15.4458,35.67871 13.39502,36.47265 11.43799,37.52685 C10.95166,37.78857 10.77002,38.39501 11.03174,38.88134 C11.29395,39.36767 11.89942,39.54833 12.38623,39.28759 C14.19434,38.31396 16.08643,37.58105 18.00928,37.10937 C19.61133,36.71679 21.40235,36.69238 23.28321,37.05761 C24.41553,37.27685 25.58643,37.5039 26.5254,38.0288 C27.56544,38.61083 27.81056,39.34179 27.96681,40.76073 C28.32179,43.97509 27.82863,54.93846 27.82374,55.04882 C27.79981,55.57568 28.18897,56.03027 28.71339,56.08837 C28.85157,56.10302 32.13087,56.4414 34.03126,54.5913 C34.86769,53.77685 35.52394,53.10741 35.96241,52.65136 C38.01759,54.27831 40.52833,56.71532 40.73536,58.01708 C41.10645,60.35155 41.0127,61.5913 41.01222,61.60009 C40.96388,62.15038 41.37062,62.63525 41.92091,62.68359 C41.9507,62.68652 41.97999,62.6875 42.00929,62.6875 C42.52247,62.6875 42.959,62.29541 43.00441,61.7749 C43.00978,61.71631 43.12502,60.31299 42.71095,57.70312 C42.26855,54.92139 37.41602,51.21826 36.44824,50.50439 L36.44824,50.50439 Z" id="Shape"></path>
            <path d="M23.18652,48.85205 L17.70947,56.01416 C16.24121,57.93359 16.74121,61.64062 16.80322,62.05713 C16.87695,62.55371 17.30371,62.90967 17.79101,62.90967 C17.83984,62.90967 17.88915,62.90625 17.93847,62.89893 C18.48437,62.81836 18.86181,62.31006 18.78173,61.76416 C18.59814,60.51172 18.57568,58.17334 19.29784,57.22949 L24.77538,50.06689 L23.18652,48.85205 L23.18652,48.85205 Z" id="Shape"></path>
            <path d="M39.84619,62.85352 C39.29004,62.80567 38.81103,63.21143 38.76172,63.76123 C38.31787,68.75488 36.96484,72.19141 34.74072,73.97607 C33.19189,75.21826 31.15527,75.68554 28.68457,75.36181 C25.56592,74.95458 23.51758,72.88183 22.59717,69.20117 C21.86572,66.27734 22.14405,63.41504 22.14697,63.38672 C22.20263,62.8374 21.80322,62.34668 21.25439,62.29053 C20.6958,62.22657 20.21435,62.63233 20.15771,63.18164 C19.69628,67.64648 20.83056,76.35254 28.42578,77.34521 C29.02392,77.42333 29.60303,77.4624 30.16308,77.4624 C32.43945,77.4624 34.39501,76.81738 35.99218,75.53613 C38.6953,73.36767 40.25292,69.57373 40.7539,63.93799 C40.80273,63.38818 40.39648,62.90234 39.84619,62.85352 L39.84619,62.85352 Z" id="Shape"></path>
            <path d="M21.78857,58.68701 C21.59277,59.20312 21.85156,59.78027 22.36718,59.97656 C22.59667,60.06396 26.38329,61.47558 31.18798,61.47558 C33.42919,61.47558 35.89257,61.16845 38.31884,60.27587 C38.83739,60.08544 39.10302,59.51073 38.9121,58.99218 C38.72167,58.47411 38.14648,58.208 37.62841,58.39892 C30.71728,60.94042 23.15429,58.13574 23.07812,58.10693 C22.56152,57.91211 21.98438,58.1709 21.78857,58.68701 L21.78857,58.68701 Z" id="Shape"></path>
            <path d="M33.89893,36.43018 C33.43946,36.7334 33.31299,37.34961 33.61377,37.81055 C33.91455,38.27198 34.53418,38.40039 34.99561,38.10254 C35.18604,37.979 39.7085,35.13965 45.27832,38.93311 C45.45068,39.0503 45.64648,39.10645 45.84033,39.10645 C46.16015,39.10645 46.47412,38.95362 46.66797,38.66944 C46.97852,38.2129 46.86084,37.59083 46.4043,37.27979 C39.6958,32.7124 34.13281,36.27637 33.89893,36.43018 L33.89893,36.43018 Z" id="Shape"></path>
            <path d="M59.46143,34.15381 C59.00684,33.33154 58.27442,32.79492 57.34375,32.60156 C56.96246,32.52154 56.57129,32.50335 56.17334,32.53949 C56.14856,32.07483 55.81244,26.3291 54.2373,20.3584 L54.23706,20.35785 C54.23688,20.35706 54.237,20.35626 54.23682,20.35547 L54.13428,19.96094 C52.44385,13.76905 45.72071,4.8628 39.90772,3.08985 C37.41388,2.32923 34.58704,1.61603 30.99659,1.54853 L30.99659,1.00684 C30.99659,0.45459 30.54884,0.00684 29.99659,0.00684 C29.44434,0.00684 28.99659,0.45459 28.99659,1.00684 L28.99659,1.57483 C26.32459,1.70258 23.25233,2.18842 19.62794,3.23779 C10.98634,5.74072 5.45509,17.06152 4.43409,19.30566 C4.42439,19.32696 4.42475,19.34985 4.41663,19.37152 C4.40747,19.38812 4.39161,19.39825 4.3833,19.41553 C4.18164,19.83594 4.10303,20.27539 4.03418,20.66358 L3.98291,20.93995 C3.88916,21.40284 3.7998,21.8672 3.71631,22.33204 C3.47412,23.67384 3.29297,24.896 3.1626,26.06886 C2.98145,27.6924 2.92041,28.938 2.96387,30.10792 C2.99512,30.94288 3.07862,31.61231 3.22608,32.21583 C3.33314,32.65199 3.46088,33.10884 3.61176,33.60035 C3.03394,33.63477 2.38996,33.75507 1.84229,34.08106 C0.38575,34.95069 -0.48291,37.93213 0.62305,40.3296 C1.15284,41.47901 1.83252,42.5337 2.48926,43.55372 L2.72071,43.91358 C3.38087,44.94385 3.64991,46.16602 3.93409,47.45997 L4.13917,48.37843 C4.39161,49.50001 4.65333,50.65968 4.78077,51.78517 C4.93281,53.12953 5.24226,55.81648 8.25947,56.28035 C10.7049,65.68074 14.72499,72.60359 20.54444,77.4131 C23.19483,79.60304 26.20704,80.69972 29.3584,80.69972 C32.38867,80.69972 35.54834,79.68458 38.63623,77.65333 C41.66064,75.6631 43.47217,72.71632 44.93262,70.11036 C45.33203,69.39893 45.75635,68.67384 46.1875,67.93702 C48.09131,64.68604 50.05957,61.32423 50.76709,57.71876 C50.88458,57.11976 51.0329,56.00318 51.1955,54.59352 C51.6131,54.78865 52.11475,54.9211 52.71143,54.92091 C53.02735,54.92091 53.36866,54.88478 53.73536,54.80323 C56.63966,54.15675 56.64942,49.55225 56.65284,48.03907 C56.65675,46.11573 56.94093,44.49219 57.52052,43.07716 C57.73439,42.55519 58.04738,42.06202 58.37794,41.53956 C58.77345,40.91602 59.18263,40.27101 59.46388,39.5127 C59.90576,38.32227 60.40234,35.854 59.46143,34.15381 L59.46143,34.15381 Z M52.33417,34.52808 C51.42414,30.12738 50.52698,23.14215 50.03455,19.01252 C51.07087,19.8783 51.862,20.62336 52.36853,21.12617 C53.86359,26.92585 54.17535,32.62086 54.17969,32.70509 C54.18067,32.71241 54.19434,32.89113 54.20655,33.15724 C53.46936,33.54926 52.83252,34.06354 52.33417,34.52808 L52.33417,34.52808 Z M20.18457,5.15869 C29.48682,2.46533 34.74023,3.60449 39.32422,5.00293 C43.10547,6.15625 48.26904,11.76758 50.90283,17.13379 C50.4292,16.74805 49.91308,16.34522 49.3584,15.93408 C45.27197,12.90478 38.7461,9.21289 30.86475,8.82617 C25.08643,8.54053 18.65967,10.37646 11.76514,14.27881 C10.4419,15.02735 9.22901,15.78272 8.15576,16.49268 C10.48535,12.50488 14.68018,6.75293 20.18457,5.15869 L20.18457,5.15869 Z M5.75006,33.72058 C5.50403,32.97955 5.31488,32.33649 5.16846,31.74023 C5.0542,31.27197 4.98877,30.72949 4.96289,30.0332 C4.92285,28.96582 4.98096,27.81152 5.1499,26.29004 C5.27539,25.1626 5.45019,23.98389 5.68457,22.68701 C5.76562,22.23633 5.85205,21.78564 5.94287,21.33691 L6.00293,21.01367 C6.04675,20.76971 6.09491,20.52948 6.1629,20.35455 C7.25024,19.52997 8.763,18.44635 10.60296,17.29754 C10.21868,18.664 9.77972,20.24871 9.33935,21.83935 C8.53124,24.75634 7.6958,27.77294 7.24169,29.2749 C6.83551,30.61743 6.27136,32.25763 5.75006,33.72058 L5.75006,33.72058 Z M6.76807,51.56006 C6.62793,50.32568 6.3545,49.11231 6.08985,47.93897 L5.8877,47.03077 C5.57813,45.62208 5.25782,44.16505 4.4043,42.83448 L4.1709,42.4712 C3.55127,41.5088 2.91065,40.51417 2.43945,39.4922 C1.72119,37.93507 2.36914,36.0962 2.86718,35.79884 C3.22167,35.58839 3.84454,35.56611 4.2871,35.59163 C4.45745,36.06551 4.62774,36.5392 4.80419,37.01418 C5.55321,39.03322 6.32763,41.12063 6.63134,43.31252 C6.87695,45.08156 7.00927,46.91262 7.13769,48.68361 C7.20507,49.61525 7.27246,50.5464 7.35546,51.47414 C7.42718,52.27437 7.5656,53.12117 7.73675,53.99746 C7.06921,53.55487 6.8988,52.71564 6.76807,51.56006 L6.76807,51.56006 Z M44.46191,66.92627 C44.02392,67.67432 43.59326,68.41016 43.18798,69.13281 C41.51903,72.11035 39.91943,74.41504 37.53661,75.98242 C34.29638,78.11377 27.94579,80.93359 21.81884,75.87109 C16.19866,71.22692 12.33904,64.43664 10.01916,55.11255 C10.01898,55.11182 10.01922,55.11109 10.01904,55.11035 C9.67187,53.71484 9.45215,52.4668 9.34765,51.2959 C9.26562,50.3794 9.19872,49.45947 9.13232,48.53955 C9.00195,46.73633 8.8667,44.87158 8.61279,43.03809 C8.29748,40.7641 7.52386,38.60413 6.80706,36.66864 C7.45086,34.92731 8.49999,32.02405 9.15575,29.854 C9.61669,28.32959 10.45555,25.30127 11.26659,22.37304 C11.95037,19.90478 12.63085,17.44842 13.10289,15.82397 C17.60954,13.31811 24.22044,10.50012 30.76707,10.82421 C37.93382,11.17553 43.93925,14.47533 47.81956,17.28881 C48.34941,21.93725 49.59581,32.1513 50.81004,36.83495 L50.80809,37.0537 C50.7578,38.30175 49.36082,54.49901 48.80418,57.33397 C48.16211,60.60645 46.28125,63.81934 44.46191,66.92627 L44.46191,66.92627 Z M57.58887,38.81689 C57.38086,39.37793 57.04492,39.90771 56.68897,40.46875 C56.32618,41.04102 55.95069,41.6333 55.66993,42.31885 C54.99024,43.97803 54.65772,45.84766 54.65284,48.03516 C54.64405,52.11231 53.7046,52.76123 53.30079,52.85108 C52.04835,53.12647 51.6421,52.51319 51.58448,52.41163 C51.55189,52.34242 51.49842,52.29304 51.45319,52.23524 C51.76679,49.23335 52.10035,45.62055 52.35822,42.66712 C52.67206,42.25464 52.99671,41.85047 53.32764,41.45167 C53.90967,40.75099 54.45362,40.12257 55.22217,39.53028 C55.65967,39.19337 55.74121,38.56544 55.40381,38.12794 C55.06641,37.68946 54.4375,37.6089 54.00147,37.9463 C53.47669,38.3506 53.04615,38.76521 52.65265,39.1866 C52.74207,38.08418 52.79828,37.32741 52.80713,37.10402 L52.80878,36.93959 L52.82129,36.92433 C53.16406,36.47706 54.32861,35.20851 55.5874,34.71925 C55.5888,34.7187 55.58984,34.7176 55.59125,34.71705 C56.07715,34.52924 56.53021,34.47492 56.93653,34.55958 C57.29932,34.63478 57.53809,34.8086 57.71143,35.12208 C58.19678,35.99902 58.01025,37.68066 57.58887,38.81689 L57.58887,38.81689 Z" id="Shape"></path>
        </g>
    </g>
</svg>