<?xml version="1.0" encoding="UTF-8" standalone="no"?>
<svg width="48px" height="72px" viewBox="0 0 48 72" version="1.1" xmlns="http://www.w3.org/2000/svg" xmlns:xlink="http://www.w3.org/1999/xlink">
    <!-- Generator: Sketch 40.3 (33839) - http://www.bohemiancoding.com/sketch -->
    <title>Shape</title>
    <desc>Created with Sketch.</desc>
    <defs></defs>
    <g id="Page-1" stroke="none" stroke-width="1" fill="none" fill-rule="evenodd">
        <path d="M24.03,-0.003 C11.19,-0.003 0.81,10.437 0.81,23.277 C0.81,32.037 5.67,39.658 12.81,43.618 C13.71,44.158 14.49,42.718 13.59,42.238 C6.93,38.517 2.43,31.437 2.43,23.277 C2.43,11.277 12.09,1.617 24.03,1.617 C35.97,1.617 45.631,11.277 45.631,23.277 C45.631,31.437 41.07,38.517 34.41,42.238 C33.51,42.717 34.291,44.158 35.189,43.618 C42.39,39.658 47.189,32.037 47.189,23.277 C47.189,10.437 36.811,-0.003 24.03,-0.003 L24.03,-0.003 L24.03,-0.003 Z M24.03,7.137 C15.15,7.137 7.95,14.397 7.95,23.277 C7.95,28.977 10.89,33.957 15.33,36.837 C16.23,37.438 17.13,36.057 16.17,35.457 C12.21,32.877 9.51,28.377 9.51,23.277 C9.51,15.237 15.99,8.757 24.03,8.757 C32.009,8.757 38.49,15.237 38.49,23.277 C38.49,28.377 35.849,32.877 31.83,35.457 C30.871,36.057 31.769,37.438 32.73,36.837 C37.169,33.957 40.109,28.977 40.109,23.277 C40.109,14.396 32.91,7.137 24.03,7.137 L24.03,7.137 L24.03,7.137 Z M24.03,13.677 C18.69,13.677 14.43,17.937 14.43,23.277 C14.43,26.097 15.63,28.677 17.61,30.417 C18.39,31.197 19.53,29.937 18.69,29.217 C17.01,27.777 16.05,25.617 16.05,23.277 C16.05,18.837 19.59,15.237 24.03,15.237 C28.41,15.237 32.009,18.837 32.009,23.277 C32.009,25.617 30.989,27.777 29.37,29.217 C28.528,29.937 29.608,31.197 30.448,30.417 C32.37,28.677 33.569,26.097 33.569,23.277 C33.57,17.937 29.311,13.677 24.03,13.677 L24.03,13.677 L24.03,13.677 Z M24.03,19.437 C21.93,19.437 20.19,21.177 20.19,23.277 C20.19,24.777 21.15,26.097 22.41,26.697 L15.45,45.358 C15.33,45.478 15.33,45.597 15.27,45.778 L5.85,70.918 C5.49,71.939 6.99,72.479 7.35,71.458 L10.11,64.138 L37.89,64.138 L40.65,71.458 C41.009,72.479 42.57,71.938 42.15,70.918 L32.73,45.778 C32.73,45.597 32.669,45.478 32.609,45.358 L25.589,26.697 C26.909,26.097 27.81,24.777 27.81,23.277 C27.811,21.177 26.131,19.437 24.03,19.437 L24.03,19.437 L24.03,19.437 Z M24.03,21.057 C25.23,21.057 26.189,22.017 26.189,23.277 C26.189,24.477 25.23,25.497 24.03,25.497 C22.77,25.497 21.81,24.477 21.81,23.277 C21.81,22.017 22.77,21.057 24.03,21.057 L24.03,21.057 L24.03,21.057 Z M24.03,27.057 L24.03,27.057 L24.03,27.057 L27.449,36.297 L20.55,36.297 L24.03,27.057 L24.03,27.057 L24.03,27.057 Z M22.23,37.857 L28.051,37.857 L30.211,43.556 L22.23,37.857 L22.23,37.857 L22.23,37.857 Z M19.83,38.157 L29.49,44.997 L17.25,44.997 L19.83,38.157 L19.83,38.157 L19.83,38.157 Z M19.89,46.617 L31.35,46.617 L33.631,52.677 L19.89,46.617 L19.89,46.617 L19.89,46.617 Z M16.59,46.917 L32.131,53.757 L14.01,53.757 L16.59,46.917 L16.59,46.917 L16.59,46.917 Z M17.97,55.377 L34.65,55.377 L36.99,61.617 L17.97,55.377 L17.97,55.377 L17.97,55.377 Z M13.35,55.557 L34.65,62.517 L10.71,62.517 L13.35,55.557 L13.35,55.557 L13.35,55.557 Z" id="Shape" fill="#1A699E"></path>
    </g>
</svg>