<?xml version="1.0" encoding="UTF-8" standalone="no"?>
<svg width="85px" height="86px" viewBox="0 0 85 86" version="1.1" xmlns="http://www.w3.org/2000/svg" xmlns:xlink="http://www.w3.org/1999/xlink">
    <!-- Generator: Sketch 40.3 (33839) - http://www.bohemiancoding.com/sketch -->
    <title>Shape</title>
    <desc>Created with Sketch.</desc>
    <defs></defs>
    <g id="Page-1" stroke="none" stroke-width="1" fill="none" fill-rule="evenodd">
        <path d="M39.6,5.8 C39.6,5.167 39.55,4.633 39.45,4.2 C39.283,3.167 38.983,2.55 38.55,2.35 C37.917,2.55 36.334,6.367 33.8,13.8 C33.77,13.921 33.753,14.046 33.75,14.175 C33.754,14.083 33.771,14.008 33.8,13.95 C36.4,9.149 38.333,6.433 39.6,5.8 L39.6,5.8 Z M45.5,4.2 C45.434,4.633 45.366,5.183 45.3,5.85 C46.6,6.483 48.533,9.217 51.1,14.05 C51.1,14.116 51.151,14.167 51.25,14.2 C51.15,14.1 51.1,14.016 51.1,13.95 C48.634,6.45 47.067,2.617 46.401,2.45 C46,2.583 45.7,3.167 45.5,4.2 L45.5,4.2 Z M45,8.149 C44.934,8.149 44.867,8.166 44.8,8.199 C44.7,8.265 44.584,8.299 44.45,8.299 C44.55,8.332 44.599,8.416 44.599,8.549 C44.466,8.982 44.4,9.649 44.4,10.549 C44.4,12.182 44.549,13.615 44.849,14.849 C45.016,15.716 45.383,16.716 45.95,17.849 C46.417,19.016 46.717,19.749 46.849,20.049 L46.95,20.049 C47.217,20.482 47.349,21.282 47.349,22.449 C47.349,23.316 47.433,24.332 47.599,25.499 C47.799,26.699 47.9,27.766 47.9,28.699 C47.833,29.332 47.917,30.232 48.15,31.399 C50.383,32.199 52.066,34.683 53.2,38.849 C53.467,40.149 53.783,41.933 54.15,44.199 C54.417,46.066 54.633,47.199 54.799,47.599 C54.832,47.932 54.782,48.199 54.65,48.399 C54.516,48.733 54.316,48.965 54.049,49.099 C53.782,49.132 53.499,49.116 53.199,49.049 C52.932,48.849 52.749,48.632 52.649,48.399 C52.482,47.965 52.232,46.666 51.899,44.5 C51.598,42.366 51.282,40.667 50.949,39.399 C50.115,35.899 48.799,33.916 46.999,33.449 L46.949,33.449 C46.749,33.382 46.549,33.349 46.348,33.349 C45.915,33.349 45.615,33.532 45.449,33.899 C45.149,34.466 44.999,35.249 44.999,36.249 C44.999,37.016 45.032,37.716 45.099,38.349 C45.2,38.616 45.332,39.099 45.499,39.799 C45.933,41.232 46.149,42.982 46.149,45.049 C46.149,47.349 45.916,49.632 45.449,51.899 C45.216,53.132 45.065,53.916 44.999,54.25 C44.866,55.083 44.799,55.916 44.799,56.75 C44.799,60.083 45.615,63.083 47.249,65.75 C48.649,68.017 50.782,70.25 53.649,72.449 C55.582,73.816 58.548,75.699 62.548,78.099 C66.515,80.465 69.448,82.299 71.348,83.599 C76.149,80.366 79.732,76.149 82.098,70.949 C80.365,70.516 79.382,70.25 79.149,70.149 L79.1,70.149 C77.434,69.649 75.951,69.149 74.651,68.649 C71.151,67.449 68.151,65.932 65.651,64.099 C62.951,62.132 61.467,60.449 61.201,59.049 C60.867,57.849 60.334,54.099 59.6,47.799 C58.867,41.632 57.85,36.432 56.55,32.199 C56.05,30.499 55.6,29.099 55.2,27.999 L55.2,27.849 C54.7,26.316 54.349,25.366 54.15,24.999 L54.15,24.949 C53.783,24.249 53.099,22.866 52.099,20.799 C50.9,18.466 49.916,16.549 49.15,15.049 C47.017,11.016 45.634,8.716 45,8.149 L45,8.149 Z M40.55,10.55 C40.55,9.65 40.533,8.983 40.5,8.55 C40.4,8.25 40.3,8.05 40.2,7.95 C39.7,8.117 38.25,10.467 35.85,15 C35.05,16.434 34.067,18.333 32.9,20.7 C31.867,22.733 31.167,24.083 30.8,24.75 C30.633,25.217 30.267,26.184 29.7,27.65 L29.7,27.7 L29.7,27.85 C29.367,28.917 28.95,30.333 28.45,32.1 C27.15,36.2 26.133,41.35 25.4,47.55 C24.633,53.883 24.1,57.65 23.8,58.85 C23.533,60.25 22.05,61.9 19.35,63.8 C16.817,65.6 13.817,67.083 10.35,68.25 C9.017,68.75 7.517,69.216 5.85,69.649 C5.617,69.75 4.633,70.033 2.9,70.5 C5.3,75.699 8.834,79.949 13.5,83.25 C15.433,81.949 18.4,80.133 22.4,77.8 C26.433,75.533 29.383,73.699 31.25,72.3 C34.117,70.1 36.267,67.883 37.7,65.65 C39.333,63.05 40.15,60.084 40.15,56.751 C40.15,55.917 40.1,55.084 40,54.251 C39.967,53.917 39.817,53.117 39.55,51.851 C39.05,49.551 38.8,47.285 38.8,45.051 C38.8,42.984 39.017,41.234 39.45,39.801 C39.65,39.101 39.766,38.584 39.8,38.251 C39.933,37.685 40,37.018 40,36.251 C40,35.251 39.85,34.468 39.55,33.901 C39.317,33.534 39.017,33.335 38.65,33.301 C38.483,33.301 38.317,33.318 38.15,33.351 L38.05,33.351 C36.317,33.751 34.967,35.734 34,39.301 C33.7,40.501 33.367,42.218 33,44.45 C32.7,46.551 32.483,47.834 32.35,48.301 C32.217,48.568 32.017,48.768 31.75,48.901 C31.417,49.035 31.117,49.035 30.85,48.901 C30.583,48.801 30.416,48.601 30.35,48.301 C30.117,48.034 30.067,47.768 30.2,47.501 C30.333,47.134 30.533,45.984 30.8,44.051 C31.167,41.818 31.5,40.051 31.8,38.751 C32.867,34.484 34.567,32.018 36.9,31.351 C37.033,30.218 37.1,29.318 37.1,28.651 C37.1,27.718 37.2,26.651 37.4,25.451 C37.567,24.318 37.65,23.318 37.65,22.451 C37.65,21.284 37.783,20.484 38.05,20.051 L38,20.051 C38.233,19.684 38.617,18.918 39.15,17.751 C39.584,16.685 39.9,15.718 40.1,14.851 C40.4,13.616 40.55,12.183 40.55,10.55 L40.55,10.55 Z M84.65,70.1 C84.75,70.267 84.733,70.466 84.599,70.7 C81.933,77.067 77.733,82.134 71.999,85.9 C71.833,85.966 71.616,86 71.35,86 C71.151,86 70.951,85.933 70.75,85.8 C68.917,84.5 65.816,82.583 61.45,80.05 C57.316,77.583 54.266,75.633 52.3,74.199 C49.2,71.866 46.866,69.432 45.3,66.899 C43.467,63.866 42.55,60.483 42.55,56.75 C42.55,55.816 42.651,54.883 42.85,53.949 C42.883,53.55 43.017,52.716 43.25,51.449 C43.684,49.349 43.9,47.216 43.9,45.05 C43.9,43.25 43.75,41.699 43.45,40.4 C43.183,39.6 43.05,39.05 43.05,38.75 C42.85,38.017 42.75,37.184 42.75,36.25 C42.75,34.817 42.983,33.7 43.45,32.9 C44.016,31.867 44.816,31.283 45.849,31.15 C45.683,30.15 45.599,29.317 45.599,28.65 C45.599,27.85 45.533,26.917 45.4,25.85 C45.2,24.583 45.099,23.45 45.099,22.45 C45.099,21.85 45.066,21.433 44.999,21.2 C44.799,20.833 44.415,19.983 43.849,18.65 C43.316,17.417 42.915,16.334 42.65,15.4 C42.584,15.033 42.533,14.717 42.5,14.45 C42.4,14.717 42.316,15.016 42.25,15.35 C42.017,16.317 41.65,17.417 41.15,18.65 C40.584,19.95 40.2,20.767 40,21.1 C39.9,21.333 39.85,21.783 39.85,22.45 C39.85,23.417 39.767,24.516 39.6,25.75 C39.433,26.85 39.35,27.8 39.35,28.6 C39.35,29.267 39.3,30.083 39.2,31.05 C40.2,31.25 40.967,31.866 41.5,32.9 C41.933,33.7 42.15,34.817 42.15,36.25 C42.15,37.184 42.117,38.017 42.049,38.75 C41.949,39.05 41.782,39.583 41.549,40.35 C41.182,41.684 40.999,43.25 40.999,45.05 C40.999,47.216 41.249,49.35 41.749,51.449 C41.982,52.716 42.116,53.516 42.149,53.849 C42.348,54.849 42.449,55.816 42.449,56.749 C42.382,60.482 41.432,63.849 39.599,66.849 C38.032,69.316 35.699,71.733 32.599,74.099 C30.665,75.499 27.649,77.382 23.549,79.749 C19.149,82.249 16.032,84.182 14.199,85.549 C13.966,85.649 13.765,85.698 13.599,85.698 C13.366,85.698 13.165,85.648 12.999,85.549 C7.232,81.649 3.016,76.516 0.349,70.149 C0.249,69.949 0.216,69.75 0.249,69.549 C0.316,69.316 0.416,69.132 0.549,68.999 C0.682,68.832 0.882,68.715 1.149,68.648 C3.616,67.982 4.982,67.598 5.249,67.499 C6.916,67.065 8.366,66.632 9.599,66.198 C12.866,65.065 15.699,63.648 18.099,61.948 C20.165,60.448 21.349,59.215 21.649,58.249 L21.649,58.299 C21.949,57.132 22.466,53.465 23.199,47.299 C23.899,40.966 24.932,35.666 26.299,31.399 C26.799,29.699 27.249,28.282 27.649,27.149 C28.049,25.183 28.516,23.399 29.049,21.799 C29.983,18.466 30.882,15.566 31.749,13.099 C34.749,4.266 37.016,-0.051 38.549,0.149 C40.182,0.049 41.199,1.249 41.599,3.749 C41.699,4.382 41.766,5.132 41.799,5.999 L41.799,6.399 C42.099,6.666 42.333,7.066 42.499,7.599 C42.632,7.099 42.849,6.699 43.149,6.399 L43.149,5.999 C43.149,5.132 43.215,4.382 43.348,3.749 L43.348,3.849 C43.783,1.283 44.8,0.1 46.4,0.3 C48,0.067 50.266,4.366 53.2,13.2 C54.033,15.733 54.967,18.65 56,21.95 C56.467,23.583 56.917,25.367 57.35,27.3 L57.401,27.4 C57.734,28.5 58.168,29.883 58.701,31.55 C60.034,35.883 61.067,41.199 61.801,47.5 C62.501,53.666 63.018,57.316 63.351,58.449 C63.618,59.483 64.818,60.766 66.952,62.3 C69.285,63.933 72.118,65.366 75.452,66.6 C76.652,67.067 78.068,67.534 79.702,68 L79.752,68 C80.052,68.1 81.436,68.5 83.902,69.199 C84.101,69.233 84.285,69.316 84.452,69.449 C84.583,69.649 84.65,69.866 84.65,70.1 L84.65,70.1 Z" id="Shape" fill="#1A699E"></path>
    </g>
</svg>