<?xml version="1.0" encoding="UTF-8" standalone="no"?>
<svg width="58px" height="90px" viewBox="0 0 58 90" version="1.1" xmlns="http://www.w3.org/2000/svg" xmlns:xlink="http://www.w3.org/1999/xlink">
    <!-- Generator: Sketch 40.3 (33839) - http://www.bohemiancoding.com/sketch -->
    <title>noun_329724</title>
    <desc>Created with Sketch.</desc>
    <defs></defs>
    <g id="Page-1" stroke="none" stroke-width="1" fill="none" fill-rule="evenodd">
        <g id="noun_329724">
            <polygon id="Shape" points="14.671 58.803 14.672 58.804 14.672 58.803"></polygon>
            <path d="M8.312,20.413 C7.848,20.741 7.404,21.096 6.985,21.478 C7.551,21.784 8.035,22.223 8.396,22.753 C8.696,22.489 9.012,22.24 9.34,22.005 C8.88,21.569 8.525,21.025 8.312,20.413 L8.312,20.413 Z" id="Shape" fill="#1A699E"></path>
            <path d="M24.162,16.51 C24.434,16.34 24.724,16.164 25.034,15.985 C24.59,15.546 24.26,14.995 24.084,14.378 C23.687,14.61 23.315,14.838 22.969,15.059 C23.483,15.429 23.896,15.928 24.162,16.51 L24.162,16.51 Z" id="Shape" fill="#1A699E"></path>
            <path d="M14.476,58.573 C14.453,58.628 14.441,58.688 14.441,58.749 C14.441,58.759 14.443,58.774 14.445,58.789 C14.443,58.804 14.441,58.818 14.441,58.828 L14.441,61.434 C14.441,61.558 14.492,61.678 14.578,61.764 L19.023,66.199 L13.556,71.666 C13.543,71.679 13.533,71.692 13.523,71.705 C13.387,71.79 13.303,71.939 13.304,72.103 L13.321,74.725 C13.322,74.85 13.371,74.966 13.459,75.053 L17.348,78.916 C17.48,79.046 17.686,79.085 17.855,79.013 C17.925,78.984 17.988,78.937 18.02,78.895 L24.835,72.08 L42.622,89.828 C42.71,89.916 42.827,89.964 42.951,89.964 C43.076,89.964 43.192,89.916 43.28,89.828 L47.369,85.749 C47.457,85.661 47.506,85.544 47.506,85.419 L47.506,82.813 C47.506,82.802 47.504,82.789 47.502,82.776 C47.504,82.761 47.506,82.746 47.506,82.738 C47.506,82.614 47.457,82.497 47.369,82.409 L30.887,65.926 L35.778,61.035 C35.866,60.947 35.915,60.83 35.915,60.705 L35.915,58.1 C35.915,57.982 35.869,57.869 35.787,57.782 C35.773,57.758 35.754,57.729 35.726,57.702 L31.945,53.921 C31.778,53.756 31.468,53.755 31.301,53.921 L25.092,60.13 L19.309,54.347 C19.175,54.214 18.967,54.183 18.797,54.252 L14.476,58.573 L14.476,58.573 Z M28.365,64.418 C28.323,64.46 28.299,64.518 28.299,64.578 C28.299,64.638 28.323,64.695 28.365,64.738 L28.69,65.063 C28.706,65.079 28.724,65.092 28.743,65.102 L46.381,82.739 L42.968,86.152 L25.326,68.51 C25.316,68.493 25.304,68.477 25.289,68.463 L24.965,68.138 C24.876,68.05 24.733,68.05 24.645,68.138 L17.659,75.123 L14.522,71.986 L21.508,65 C21.55,64.958 21.574,64.9 21.574,64.84 C21.574,64.78 21.55,64.723 21.508,64.68 L21.183,64.355 C21.169,64.341 21.153,64.329 21.137,64.32 L15.565,58.748 L18.978,55.335 L24.542,60.899 C24.553,60.919 24.566,60.938 24.583,60.955 L24.907,61.28 C24.996,61.368 25.139,61.368 25.227,61.28 L31.621,54.886 L34.758,58.023 L28.365,64.418 L28.365,64.418 Z" id="Shape" fill="#1A699E"></path>
            <path d="M50.082,29.076 C49.169,29.514 48.264,29.892 47.382,30.205 C47.565,30.642 47.667,31.121 47.667,31.624 C47.667,31.793 47.652,31.958 47.63,32.12 C48.739,31.745 49.869,31.281 50.995,30.736 C50.557,30.28 50.238,29.711 50.082,29.076 L50.082,29.076 Z" id="Shape" fill="#1A699E"></path>
            <path d="M2.919,28.349 C2.72,29.121 2.576,29.919 2.488,30.733 C2.738,30.684 2.996,30.657 3.26,30.657 C3.653,30.657 4.031,30.716 4.39,30.822 C4.464,30.19 4.573,29.572 4.719,28.975 C4.059,28.914 3.447,28.692 2.919,28.349 L2.919,28.349 Z" id="Shape" fill="#1A699E"></path>
            <path d="M40.325,31.625 C40.325,31.567 40.331,31.51 40.334,31.452 C39.361,31.439 38.385,31.34 37.426,31.159 C37.324,31.825 37.047,32.434 36.638,32.932 C37.982,33.219 39.367,33.357 40.754,33.345 C40.481,32.832 40.325,32.247 40.325,31.625 L40.325,31.625 Z" id="Shape" fill="#1A699E"></path>
            <path d="M3.593,38.635 C4.536,40.64 5.695,42.689 6.926,44.659 C7.385,44.176 7.962,43.805 8.612,43.599 C7.13,41.245 5.92,39.183 5.362,38.048 C4.84,38.373 4.239,38.581 3.593,38.635 L3.593,38.635 Z" id="Shape" fill="#1A699E"></path>
            <path d="M17.154,18.034 C17.154,17.791 17.179,17.554 17.224,17.324 C16.722,17.38 16.241,17.45 15.775,17.528 C15.984,18.013 16.1,18.546 16.1,19.106 C16.1,19.203 16.092,19.299 16.085,19.394 C16.494,19.326 16.914,19.264 17.351,19.213 C17.226,18.843 17.154,18.447 17.154,18.034 L17.154,18.034 Z" id="Shape" fill="#1A699E"></path>
            <path d="M31.248,12.885 C32.156,12.481 33.121,12.066 34.123,11.649 C33.776,11.132 33.561,10.52 33.516,9.862 C32.465,10.299 31.463,10.73 30.528,11.147 C30.907,11.644 31.162,12.237 31.248,12.885 L31.248,12.885 Z" id="Shape" fill="#1A699E"></path>
            <path d="M24.033,21.595 C23.813,21.282 23.598,20.967 23.394,20.655 C22.937,21.103 22.362,21.43 21.722,21.591 C22.016,22.05 22.329,22.509 22.653,22.962 C22.982,22.392 23.459,21.918 24.033,21.595 L24.033,21.595 Z" id="Shape" fill="#1A699E"></path>
            <path d="M49.562,5.936 C50.176,5.729 50.805,5.519 51.446,5.306 C51.103,4.785 50.892,4.171 50.852,3.51 C50.198,3.727 49.557,3.941 48.931,4.153 C49.285,4.668 49.509,5.277 49.562,5.936 L49.562,5.936 Z" id="Shape" fill="#1A699E"></path>
            <path d="M40.796,9.034 C41.46,8.787 42.148,8.535 42.858,8.278 C42.51,7.76 42.293,7.148 42.247,6.489 C41.482,6.767 40.744,7.038 40.03,7.305 C40.425,7.793 40.694,8.386 40.796,9.034 L40.796,9.034 Z" id="Shape" fill="#1A699E"></path>
            <path d="M11.337,51.106 C12.788,53.068 14.084,54.698 14.962,55.771 L16.241,54.492 C15.257,53.322 14.078,51.738 12.859,50.001 C12.449,50.48 11.929,50.862 11.337,51.106 L11.337,51.106 Z" id="Shape" fill="#1A699E"></path>
            <path d="M30.847,28.428 C30.163,27.972 29.486,27.463 28.829,26.908 C28.45,27.444 27.932,27.874 27.326,28.145 C28.231,28.927 29.178,29.632 30.148,30.247 C30.213,29.569 30.464,28.948 30.847,28.428 L30.847,28.428 Z" id="Shape" fill="#1A699E"></path>
            <path d="M13.021,47.409 C13.021,45.644 11.585,44.209 9.821,44.209 C8.056,44.209 6.621,45.645 6.621,47.409 C6.621,49.173 8.057,50.609 9.821,50.609 C11.586,50.609 13.021,49.173 13.021,47.409 L13.021,47.409 Z" id="Shape" fill="#1A699E"></path>
            <path d="M6.461,34.654 C6.461,32.889 5.025,31.454 3.261,31.454 C1.497,31.454 0.061,32.89 0.061,34.654 C0.061,36.419 1.497,37.854 3.261,37.854 C5.025,37.854 6.461,36.419 6.461,34.654 L6.461,34.654 Z" id="Shape" fill="#1A699E"></path>
            <path d="M5.089,28.197 C6.854,28.197 8.289,26.761 8.289,24.996 C8.289,23.231 6.853,21.796 5.089,21.796 C3.325,21.796 1.889,23.232 1.889,24.996 C1.888,26.761 3.324,28.197 5.089,28.197 L5.089,28.197 Z" id="Shape" fill="#1A699E"></path>
            <path d="M12.094,22.298 C13.854,22.298 15.286,20.866 15.286,19.106 C15.286,17.346 13.854,15.914 12.094,15.914 C10.334,15.914 8.902,17.346 8.902,19.106 C8.902,20.866 10.334,22.298 12.094,22.298 L12.094,22.298 Z" id="Shape" fill="#1A699E"></path>
            <circle id="Oval" fill="#1A699E" cx="20.826" cy="18.034" r="2.858"></circle>
            <circle id="Oval" fill="#1A699E" cx="27.613" cy="13.373" r="2.858"></circle>
            <circle id="Oval" fill="#1A699E" cx="37.175" cy="9.609" r="2.858"></circle>
            <circle id="Oval" fill="#1A699E" cx="45.905" cy="6.231" r="2.858"></circle>
            <circle id="Oval" fill="#1A699E" cx="54.512" cy="3.29" r="2.858"></circle>
            <circle id="Oval" fill="#1A699E" cx="25.831" cy="24.794" r="2.858"></circle>
            <circle id="Oval" fill="#1A699E" cx="33.801" cy="30.602" r="2.858"></circle>
            <circle id="Oval" fill="#1A699E" cx="43.996" cy="31.625" r="2.858"></circle>
            <circle id="Oval" fill="#1A699E" cx="53.643" cy="28.198" r="2.858"></circle>
        </g>
    </g>
</svg>