<?xml version="1.0" encoding="UTF-8" standalone="no"?>
<svg width="120px" height="120px" viewBox="0 0 120 120" version="1.1" xmlns="http://www.w3.org/2000/svg" xmlns:xlink="http://www.w3.org/1999/xlink">
    <!-- Generator: Sketch 41.2 (35397) - http://www.bohemiancoding.com/sketch -->
    <title>announcements</title>
    <desc>Created with Sketch.</desc>
    <defs></defs>
    <g id="Page-1" stroke="none" stroke-width="1" fill="none" fill-rule="evenodd">
        <g id="announcements" transform="translate(-39.000000, -40.000000)">
            <g transform="translate(39.000000, 40.000000)">
                <g id="groups" fill="#1A699E">
                    <circle id="Oval-2" cx="60" cy="60" r="60"></circle>
                </g>
                <g id="noun_771710" transform="translate(35.000000, 24.500000)" fill="#FFFFFF">
                    <g id="Group" transform="translate(0.000000, -0.000000)">
                        <path d="M44.6210765,41.7653276 L44.6210765,29.6283948 C44.6210765,21.7036916 39.9090908,14.6357131 32.6983248,11.565783 C33.0552935,10.6376646 33.2694746,9.5667588 33.2694746,8.56724669 C33.2694746,3.99804845 29.5570011,0.28557489 24.9878028,0.28557489 C20.4186046,0.28557489 16.706131,3.99804845 16.706131,8.56724669 C16.706131,9.63815252 16.9203122,10.6376646 17.2772808,11.565783 C10.0665149,14.6357131 5.35452918,21.7036916 5.35452918,29.6283948 L5.35452918,41.7653276 C5.35452918,46.1917384 3.64107984,50.3325743 0.571149779,53.4738981 L0.142787445,53.9022604 L0.142787445,62.3267196 L17.7056431,62.3267196 C18.4195804,65.6822246 21.4181167,68.2523986 24.9878028,68.2523986 C28.557489,68.2523986 31.5560253,65.6822246 32.2699625,62.3267196 L49.8328182,62.3267196 L49.8328182,53.9022604 L49.4044559,53.4738981 C46.2631321,50.3325743 44.6210765,46.1203447 44.6210765,41.7653276 Z M46.9056756,59.4709707 L29.4856073,59.4709707 L29.4856073,60.8988452 C29.4856073,63.3976255 27.4865831,65.3966497 24.9878028,65.3966497 C22.4890225,65.3966497 20.4899983,63.3976255 20.4899983,60.8988452 L20.4899983,59.4709707 L3.06993006,59.4709707 L3.06993006,55.04456 C6.42543501,51.4034801 8.2816718,46.6914944 8.2816718,41.7653276 L8.2816718,29.6283948 C8.2816718,22.4176288 12.9222638,15.9921938 19.7760611,13.7075947 L21.5609042,13.1364449 L20.4899983,11.565783 C19.9188485,10.7090584 19.5618799,9.63815252 19.5618799,8.56724669 C19.5618799,5.56871035 21.9892665,3.14132378 24.9878028,3.14132378 C27.9863392,3.14132378 30.4137257,5.56871035 30.4137257,8.56724669 C30.4137257,9.63815252 30.1281508,10.7090584 29.4856073,11.565783 L28.4147015,13.1364449 L30.1995446,13.7075947 C37.0533419,15.9921938 41.6939339,22.3462351 41.6939339,29.6283948 L41.6939339,41.7653276 C41.6939339,46.6914944 43.5501707,51.4034801 46.9056756,55.04456 L46.9056756,59.4709707 Z" id="Shape"></path>
                        <path d="M20.8469669,17.1344934 C15.421044,18.9193364 11.7799642,23.9882907 11.7799642,29.6283948 L11.7799642,41.7653276 C11.7799642,42.5506585 12.4225077,43.193202 13.2078386,43.193202 C13.9931696,43.193202 14.6357131,42.5506585 14.6357131,41.7653276 L14.6357131,29.6283948 C14.6357131,25.1305903 17.491462,21.2039355 21.7036916,19.8474548 C22.4176288,19.6332737 22.8459912,18.776549 22.63181,18.0626118 C22.4176288,17.2772808 21.6322979,16.8489185 20.8469669,17.1344934 Z" id="Shape"></path>
                    </g>
                </g>
            </g>
        </g>
    </g>
</svg>