<?xml version="1.0" encoding="UTF-8" standalone="no"?>
<svg width="120px" height="121px" viewBox="0 0 120 121" version="1.1" xmlns="http://www.w3.org/2000/svg" xmlns:xlink="http://www.w3.org/1999/xlink">
    <!-- Generator: Sketch 41.2 (35397) - http://www.bohemiancoding.com/sketch -->
    <title>groups</title>
    <desc>Created with Sketch.</desc>
    <defs></defs>
    <g id="Page-1" stroke="none" stroke-width="1" fill="none" fill-rule="evenodd">
        <g id="fundraising" transform="translate(-39.000000, -40.000000)">
            <g id="groups" transform="translate(39.000000, 40.000000)">
                <ellipse id="Oval-2" fill="#1A699E" cx="60" cy="60.5" rx="60" ry="60.5"></ellipse>
                <g id="noun_548126" transform="translate(37.500000, 25.000000)">
                    <g id="Group" fill="#FFFFFF">
                        <path d="M41.5409802,3.808 L28.962079,3.808 C27.3228073,3.808 25.9894055,5.14140176 25.9894055,6.78067347 L25.9894055,66.2341428 C25.9894055,71.3415336 31.4710808,70.831548 35.2515296,70.831548 C39.0319784,70.831548 44.5136537,71.3415336 44.5136537,66.2341428 L44.5136537,6.78067347 C44.5128571,5.14140176 43.1802519,3.808 41.5409802,3.808 Z M42.1973261,66.2341428 C42.1973261,66.5989564 42.1606854,66.9550082 42.106521,67.3046876 L28.3049365,62.9866643 L28.3049365,59.9231857 L42.1981227,64.2698843 L42.1981227,66.2341428 L42.1973261,66.2341428 Z M28.3049365,58.1038968 L28.3049365,55.1304268 L42.1981227,59.4771254 L42.1981227,62.4505954 L28.3049365,58.1038968 Z M28.3049365,53.3111379 L28.3049365,50.3384644 L42.1981227,54.6843665 L42.1981227,57.6578365 L28.3049365,53.3111379 Z M28.3049365,48.5191755 L28.3049365,45.5457055 L42.1981227,49.8924041 L42.1981227,52.8650776 L28.3049365,48.5191755 Z M28.3049365,43.7264166 L28.3049365,40.7529466 L42.1981227,45.0996452 L42.1981227,48.0731152 L28.3049365,43.7264166 Z M28.3049365,38.9336577 L28.3049365,35.9601877 L42.1981227,40.3068863 L42.1981227,43.2803563 L28.3049365,38.9336577 Z M28.3049365,34.1408988 L28.3049365,31.1690219 L42.1981227,35.5157205 L42.1981227,38.4883939 L28.3049365,34.1408988 Z M28.3049365,29.3489364 L28.3049365,26.4925573 L28.676919,26.4925573 L42.1981227,30.722165 L42.1981227,33.695635 L28.3049365,29.3489364 Z M34.4924305,26.4925573 L42.1973261,26.4925573 L42.1973261,28.9028761 L34.4924305,26.4925573 Z M28.3049365,6.78067347 C28.3049365,6.41824945 28.599655,6.12353102 28.962079,6.12353102 L41.5409802,6.12353102 C41.9026077,6.12353102 42.1981227,6.41824945 42.1981227,6.78067347 L42.1981227,24.1770262 L28.3049365,24.1770262 L28.3049365,6.78067347 Z M28.5000879,67.83996 C28.3766248,67.3238045 28.3049365,66.7877355 28.3049365,66.2341428 L28.3049365,64.8067498 L39.0581454,68.1675945 C35.3034393,69.3735033 28.5000879,67.83996 28.5000879,67.83996 Z" id="Shape"></path>
                        <path d="M3.21914585,15.7119655 L15.7701683,6.68641274 L3.21914585,-2.33834353 L3.21914585,15.7119655 Z M5.53467687,2.17801729 L11.8042141,6.68641274 L5.53467687,11.1956047 L5.53467687,2.17801729 L5.53467687,2.17801729 Z" id="Shape" transform="translate(9.494657, 6.686811) rotate(-90.000000) translate(-9.494657, -6.686811) "></path>
                    </g>
                    <path d="M9.21792684,12.4215491 L9.21792684,70.8456795" id="Path-2" stroke="#FFFFFF" stroke-width="2.55552"></path>
                </g>
            </g>
        </g>
    </g>
</svg>