<?xml version="1.0" encoding="UTF-8" standalone="no"?>
<svg width="120px" height="120px" viewBox="0 0 120 120" version="1.1" xmlns="http://www.w3.org/2000/svg" xmlns:xlink="http://www.w3.org/1999/xlink">
    <!-- Generator: Sketch 41.2 (35397) - http://www.bohemiancoding.com/sketch -->
    <title>groups</title>
    <desc>Created with Sketch.</desc>
    <defs></defs>
    <g id="Page-1" stroke="none" stroke-width="1" fill="none" fill-rule="evenodd">
        <g id="groups" transform="translate(-39.000000, -40.000000)">
            <g transform="translate(39.000000, 40.000000)">
                <circle id="Oval-2" fill="#1A699E" cx="60" cy="60" r="60"></circle>
                <g id="noun_35633" transform="translate(24.305000, 22.490000)" fill="#FFFFFF">
                    <path d="M49.7172687,10.5318809 C49.7172687,12.0037276 50.9025336,13.1967801 52.3634777,13.1967801 C53.8150768,13.1967801 54.9972267,12.0037276 54.9972267,10.5318809 C54.9972267,9.06159171 53.8135193,7.86386672 52.3634777,7.86386672 C50.9025336,7.86386672 49.7172687,9.0600342 49.7172687,10.5318809 L49.7172687,10.5318809 Z" id="Shape"></path>
                    <path d="M61.3300613,22.136886 C61.3300613,23.6025027 62.5153263,24.8017852 63.9700404,24.8017852 C65.4247545,24.8017852 66.6146919,23.6025027 66.6146919,22.136886 C66.6146919,20.6650393 65.4247545,19.4673143 63.9700404,19.4673143 C62.5153263,19.4673143 61.3300613,20.6650393 61.3300613,22.136886 L61.3300613,22.136886 Z" id="Shape"></path>
                    <ellipse id="Oval" cx="68.3248376" cy="38.0515206" rx="2.85647288" ry="2.88762307"></ellipse>
                    <ellipse id="Oval" cx="63.9715979" cy="54.001978" rx="3.40471631" ry="3.44209654"></ellipse>
                    <path d="M48.9572039,65.750274 C48.9572039,67.6488784 50.4820059,69.1970431 52.3650352,69.1970431 C54.2418345,69.1970431 55.7666365,67.6488784 55.7666365,65.750274 C55.7666365,63.8516696 54.2418345,62.3081775 52.3650352,62.3081775 C50.4804484,62.3081775 48.9572039,63.8516696 48.9572039,65.750274 L48.9572039,65.750274 Z" id="Shape"></path>
                    <path d="M32.833863,70.2701673 C32.833863,72.377478 34.5284336,74.0891812 36.6170542,74.0891812 C38.6994447,74.0891812 40.3940153,72.3759205 40.3940153,70.2701673 C40.3940153,68.1597416 38.6994447,66.4527109 36.6170542,66.4527109 C34.5268761,66.4527109 32.833863,68.1597416 32.833863,70.2701673 L32.833863,70.2701673 Z" id="Shape"></path>
                    <ellipse id="Oval" cx="20.8223478" cy="65.750274" rx="3.77851865" ry="3.82368643"></ellipse>
                    <path d="M4.77065236,54.001978 C4.77065236,56.4083305 6.70352195,58.3583327 9.07716681,58.3583327 C11.4585992,58.3583327 13.3883538,56.4083305 13.3883538,54.001978 C13.3883538,51.6049705 11.4585992,49.6549683 9.07716681,49.6549683 C6.70352195,49.6549683 4.77065236,51.6049705 4.77065236,54.001978 L4.77065236,54.001978 Z" id="Shape"></path>
                    <path d="M0.464137905,38.0515206 C0.464137905,40.4532007 2.39389248,42.4032029 4.77065236,42.4032029 C7.15208476,42.4032029 9.07716681,40.4532007 9.07716681,38.0515206 C9.07716681,35.6436106 7.15208476,33.6998384 4.77065236,33.6998384 C2.39389248,33.6998384 0.464137905,35.6436106 0.464137905,38.0515206 L0.464137905,38.0515206 Z" id="Shape"></path>
                    <path d="M4.11338324,22.136886 C4.11338324,24.9061384 6.33439214,27.1520674 9.07716681,27.1520674 C11.8230565,27.1520674 14.0487379,24.9076959 14.0487379,22.136886 C14.0487379,19.3629612 11.8230565,17.1123596 9.07716681,17.1123596 C6.33439214,17.1123596 4.11338324,19.3629612 4.11338324,22.136886 L4.11338324,22.136886 Z" id="Shape"></path>
                    <path d="M15.8554492,10.5318809 C15.8554492,13.3058058 18.0780156,15.5532923 20.8223478,15.5532923 C23.563565,15.5532923 25.7923614,13.3073633 25.7923614,10.5318809 C25.7923614,7.76730111 23.5620075,5.512027 20.8223478,5.512027 C18.0780156,5.512027 15.8554492,7.7657436 15.8554492,10.5318809 L15.8554492,10.5318809 Z" id="Shape"></path>
                    <path d="M31.2047078,6.13347339 C31.2047078,9.14881226 33.628193,11.5941026 36.6154967,11.5941026 C39.5965703,11.5941026 42.0169405,9.14881226 42.0169405,6.13347339 C42.0169405,3.1150195 39.5950128,0.669729192 36.6154967,0.669729192 C33.628193,0.671286701 31.2047078,3.1150195 31.2047078,6.13347339 L31.2047078,6.13347339 Z" id="Shape"></path>
                </g>
            </g>
        </g>
    </g>
</svg>