<?xml version="1.0" encoding="UTF-8" standalone="no"?>
<svg width="120px" height="120px" viewBox="0 0 120 120" version="1.1" xmlns="http://www.w3.org/2000/svg" xmlns:xlink="http://www.w3.org/1999/xlink">
    <!-- Generator: Sketch 41.2 (35397) - http://www.bohemiancoding.com/sketch -->
    <title>pastor messages</title>
    <desc>Created with Sketch.</desc>
    <defs></defs>
    <g id="Page-1" stroke="none" stroke-width="1" fill="none" fill-rule="evenodd">
        <g id="pastor-messages" transform="translate(-39.000000, -40.000000)">
            <g transform="translate(39.000000, 40.000000)">
                <g id="groups" fill="#1A699E">
                    <circle id="Oval-2" cx="60" cy="60" r="60"></circle>
                </g>
                <g id="noun_711335" transform="translate(61.539079, 63.800003) scale(-1, 1) translate(-61.539079, -63.800003) translate(28.539079, 29.300003)" fill="#FFFFFF">
                    <g id="Group" transform="translate(-0.000000, 0.565818)">
                        <path d="M59.1928233,0.680681143 C62.686205,0.680681143 65.5268065,3.52129164 65.5268065,7.01466436 L65.5268065,43.208827 C65.5268065,46.7021997 62.686205,49.5428102 59.1928233,49.5428102 L52.0670922,49.5428102 L53.8202482,66.6219436 C53.8692509,67.0102737 53.6630408,67.3860938 53.3091781,67.5533743 C52.9553155,67.7206548 52.5340151,67.641476 52.2650291,67.357138 L34.3941479,49.5428102 L6.71124805,49.5428102 C3.21786629,49.5428102 0.377264836,46.7021997 0.377264836,43.208827 L0.377264836,7.01466436 C0.377264836,3.52129164 3.21786629,0.680681143 6.71124805,0.680681143 L59.1928233,0.680681143 L59.1928233,0.680681143 Z M58.1637728,3.48920806 L7.74029855,3.48920806 C5.31709417,3.48920806 3.39344732,5.4128636 3.39344732,7.83605929 L3.39344732,42.610843 C3.39344732,45.0340387 5.31709417,46.9576943 7.74029855,46.9576943 L34.6907762,46.9576943 C34.9233827,46.9522936 35.1484495,47.0403475 35.315636,47.2021612 L51.0186361,62.8780369 L49.4700703,47.9085245 C49.4471011,47.6642035 49.5284481,47.4215532 49.6940394,47.2404459 C49.8596308,47.0593386 50.0940445,46.9566415 50.3394406,46.9576943 L58.1637728,46.9576943 C60.5869772,46.9576943 62.510624,45.0340387 62.510624,42.610843 L62.510624,7.83605929 C62.510624,5.4128636 60.5869772,3.48920806 58.1637728,3.48920806 Z M50.6942856,20.8536221 C53.1439758,20.8536221 55.1298481,22.8394234 55.1298481,25.2891845 C55.1298481,27.738857 53.1439758,29.724747 50.6942856,29.724747 C48.2445954,29.724747 46.2587231,27.738857 46.2587231,25.2891845 C46.2587231,22.8394234 48.2445954,20.8536221 50.6942856,20.8536221 Z M32.9243134,20.8536221 C35.3740036,20.8536221 37.3598759,22.8394234 37.3598759,25.2891845 C37.3598759,27.738857 35.3740036,29.724747 32.9243134,29.724747 C30.4746232,29.724747 28.4887509,27.738857 28.4887509,25.2891845 C28.4887509,22.8394234 30.4746232,20.8536221 32.9243134,20.8536221 Z M15.2097858,20.8536221 C17.6594759,20.8536221 19.6453482,22.8394234 19.6453482,25.2891845 C19.6453482,27.738857 17.6594759,29.724747 15.2097858,29.724747 C12.7600956,29.724747 10.7742233,27.738857 10.7742233,25.2891845 C10.7742233,22.8394234 12.7600956,20.8536221 15.2097858,20.8536221 Z" id="Shape"></path>
                    </g>
                </g>
            </g>
        </g>
    </g>
</svg>