<?xml version="1.0" encoding="UTF-8" standalone="no"?>
<svg width="120px" height="120px" viewBox="0 0 120 120" version="1.1" xmlns="http://www.w3.org/2000/svg" xmlns:xlink="http://www.w3.org/1999/xlink">
    <!-- Generator: Sketch 41.2 (35397) - http://www.bohemiancoding.com/sketch -->
    <title>settings</title>
    <desc>Created with Sketch.</desc>
    <defs></defs>
    <g id="Page-1" stroke="none" stroke-width="1" fill="none" fill-rule="evenodd">
        <g id="settings" transform="translate(-39.000000, -40.000000)">
            <g transform="translate(39.000000, 40.000000)">
                <circle id="Oval-2" fill="#1A699E" cx="60" cy="60" r="60"></circle>
                <g id="gear" transform="translate(22.000000, 22.000000)" fill="#FFFFFF">
                    <path d="M33.6822745,8.71903089 C28.6892689,9.43322424 24.0999748,11.3988898 20.242327,14.2880854 L17.0496095,11.0953671 C15.3934479,9.43920613 12.7426907,9.45425524 11.0984737,11.0984735 C9.44279199,12.754155 9.45286299,15.4071056 11.0953665,17.0496083 L14.288084,20.2423267 C11.3988901,24.0999732 9.43322622,28.6892699 8.71903148,33.6822745 L4.20589299,33.6822745 C1.86372446,33.6822745 0,35.567283 0,37.8925589 C0,40.2340462 1.88304124,42.1028432 4.20589299,42.1028432 L8.71903148,42.1028432 C9.43322622,47.095848 11.3988901,51.6851446 14.288084,55.5427911 L11.0953665,58.7355095 C9.43920482,60.3916703 9.45425659,63.0424257 11.0984737,64.6866441 C12.7541553,66.3423257 15.407106,66.3322535 17.0496095,64.6897508 L20.242327,61.4970324 C24.0999748,64.3862281 28.6892689,66.3518936 33.6822745,67.0660867 L33.6822745,71.5792264 C33.6822745,73.921392 35.567282,75.7851177 37.8925589,75.7851177 C40.2340453,75.7851177 42.1028432,73.9020761 42.1028432,71.5792264 L42.1028432,67.0660867 C47.0958488,66.3518936 51.6851429,64.3862281 55.5427907,61.4970324 L58.7355082,64.6897508 C60.3916699,66.3459116 63.042427,66.3308624 64.6866441,64.6866441 C66.3423257,63.0309628 66.3322547,60.3780121 64.6897513,58.7355095 L61.4970337,55.5427911 C64.3862276,51.6851446 66.3518915,47.095848 67.0660862,42.1028432 L71.5792247,42.1028432 C73.9213933,42.1028432 75.7851177,40.2178345 75.7851177,37.8925589 C75.7851177,35.5510716 73.9020765,33.6822745 71.5792247,33.6822745 L67.0660862,33.6822745 C66.3518915,28.6892699 64.3862276,24.0999732 61.4970337,20.2423267 L64.6897513,17.0496083 C66.3459129,15.3934473 66.3308611,12.7426918 64.6866441,11.0984735 C63.0309624,9.44279203 60.3780117,9.45286442 58.7355082,11.0953671 L55.5427907,14.2880854 C51.6851429,11.3988898 47.0958488,9.43322424 42.1028432,8.71903089 L42.1028432,4.20589114 C42.1028432,1.86372585 40.2178357,0 37.8925589,0 C35.5510724,0 33.6822745,1.88304162 33.6822745,4.20589114 L33.6822745,8.71903089 Z M37.8925589,60.4086835 C50.3278722,60.4086835 60.4086835,50.3278709 60.4086835,37.8925589 C60.4086835,25.4572466 50.3278722,15.3764342 37.8925589,15.3764342 C25.4572455,15.3764342 15.3764342,25.4572466 15.3764342,37.8925589 C15.3764342,50.3278709 25.4572455,60.4086835 37.8925589,60.4086835 Z" id="Shape"></path>
                </g>
            </g>
        </g>
    </g>
</svg>